<svg width="62" height="69" viewBox="0 0 62 69" fill="none" xmlns="http://www.w3.org/2000/svg">
<path opacity="0.7" d="M51.0335 8.5215C50.7579 8.5215 50.4823 8.4525 50.2412 8.3145C43.6265 4.899 37.9075 3.45 31.0517 3.45C24.2303 3.45 17.7534 5.0715 11.8622 8.3145C11.0354 8.763 10.0018 8.4525 9.5195 7.6245C9.07163 6.7965 9.38169 5.727 10.2085 5.2785C16.6165 1.794 23.6446 0 31.0517 0C38.3898 0 44.7978 1.6215 51.8259 5.244C52.6872 5.6925 52.9973 6.7275 52.5494 7.5555C52.2393 8.1765 51.6537 8.5215 51.0335 8.5215ZM1.73346 26.634C1.38894 26.634 1.04443 26.5305 0.734364 26.3235C-0.0580203 25.7715 -0.230278 24.702 0.320946 23.9085C3.73164 19.0785 8.07253 15.2835 13.2403 12.627C24.058 7.038 37.9075 7.0035 48.7597 12.5925C53.9275 15.249 58.2684 19.0095 61.6791 23.805C62.2303 24.564 62.058 25.668 61.2656 26.22C60.4733 26.772 59.4053 26.5995 58.854 25.806C55.7534 21.459 51.8259 18.0435 47.175 15.663C37.2874 10.5915 24.6437 10.5915 14.7906 15.6975C10.1052 18.1125 6.1777 21.5625 3.07707 25.9095C2.80145 26.3925 2.28468 26.634 1.73346 26.634ZM23.2656 68.2755C22.8178 68.2755 22.3699 68.103 22.0598 67.758C19.0626 64.7565 17.4433 62.8245 15.1351 58.65C12.7579 54.4065 11.5177 49.2315 11.5177 43.677C11.5177 33.4305 20.2684 25.0815 31.0172 25.0815C41.7661 25.0815 50.5168 33.4305 50.5168 43.677C50.5168 44.643 49.7588 45.402 48.7942 45.402C47.8296 45.402 47.0716 44.643 47.0716 43.677C47.0716 35.328 39.8713 28.5315 31.0172 28.5315C22.1632 28.5315 14.9628 35.328 14.9628 43.677C14.9628 48.645 16.0653 53.2335 18.1668 56.9595C20.3717 60.927 21.8876 62.6175 24.5403 65.3085C25.1949 65.9985 25.1949 67.068 24.5403 67.758C24.1614 68.103 23.7135 68.2755 23.2656 68.2755ZM47.9674 61.893C43.8676 61.893 40.2502 60.858 37.2874 58.8225C32.1541 55.338 29.0879 49.68 29.0879 43.677C29.0879 42.711 29.8459 41.952 30.8105 41.952C31.7752 41.952 32.5331 42.711 32.5331 43.677C32.5331 48.5415 35.0136 53.13 39.2167 55.959C41.6627 57.615 44.5222 58.4085 47.9674 58.4085C48.7942 58.4085 50.1723 58.305 51.5503 58.0635C52.4805 57.891 53.3763 58.512 53.5485 59.478C53.7208 60.4095 53.1006 61.3065 52.136 61.479C50.1723 61.8585 48.4497 61.893 47.9674 61.893ZM41.0426 69C40.9048 69 40.7325 68.9655 40.5947 68.931C35.117 67.413 31.534 65.3775 27.7788 61.686C22.9556 56.8905 20.3028 50.508 20.3028 43.677C20.3028 38.088 25.0571 33.534 30.9139 33.534C36.7706 33.534 41.5249 38.088 41.5249 43.677C41.5249 47.3685 44.7289 50.37 48.6908 50.37C52.6528 50.37 55.8568 47.3685 55.8568 43.677C55.8568 30.6705 44.66 20.1135 30.8794 20.1135C21.0952 20.1135 12.1378 25.5645 8.10698 34.017C6.76338 36.8115 6.07435 40.089 6.07435 43.677C6.07435 46.368 6.31551 50.6115 8.3826 56.1315C8.72711 57.0285 8.27924 58.029 7.3835 58.3395C6.48776 58.6845 5.48867 58.2015 5.17861 57.339C3.49048 52.8195 2.66365 48.3345 2.66365 43.677C2.66365 39.537 3.45603 35.7765 5.00635 32.499C9.5884 22.8735 19.7516 16.629 30.8794 16.629C46.5549 16.629 59.3019 28.7385 59.3019 43.6425C59.3019 49.2315 54.5476 53.7855 48.6908 53.7855C42.8341 53.7855 38.0798 49.2315 38.0798 43.6425C38.0798 39.951 34.8758 36.9495 30.9139 36.9495C26.952 36.9495 23.748 39.951 23.748 43.6425C23.748 49.542 26.0218 55.062 30.1904 59.202C33.4633 62.445 36.5984 64.239 41.456 65.5845C42.3862 65.826 42.903 66.792 42.6618 67.689C42.4896 68.4825 41.7661 69 41.0426 69Z" fill="#383838"/>
</svg>
