<svg width="512" height="512" viewBox="0 0 512 512" fill="none" xmlns="http://www.w3.org/2000/svg">
<path d="M394.721 510.307H117.279C53.4441 510.307 1.69238 458.555 1.69238 394.72V117.278C1.69238 53.4431 53.4441 1.69141 117.279 1.69141H394.721C458.556 1.69141 510.308 53.4431 510.308 117.278V394.72C510.308 458.555 458.556 510.307 394.721 510.307Z" fill="white"/>
<path d="M394.721 512H117.279C52.5979 512 0 459.402 0 394.721V117.279C0 52.6317 52.5979 0 117.279 0H394.721C459.402 0 512 52.6317 512 117.279V394.721C512 459.402 459.402 512 394.721 512ZM117.279 3.38468C54.4933 3.38468 3.38468 54.4933 3.38468 117.279V394.721C3.38468 457.541 54.4933 508.615 117.279 508.615H394.721C457.541 508.615 508.615 457.507 508.615 394.721V117.279C508.615 54.4933 457.507 3.38468 394.721 3.38468H117.279Z" fill="#D3D3D3"/>
<path d="M252.058 433.749C253.75 433.749 260.79 433.749 260.79 433.749C260.79 433.749 260.79 415.912 260.79 413.745C260.79 413.542 260.96 413.373 261.163 413.373C262.787 413.373 268.541 413.373 270.166 413.373C270.369 413.373 270.538 413.542 270.538 413.745C270.538 438.284 270.538 475.482 270.538 479.442C270.538 479.645 270.369 479.814 270.166 479.814H261.163C260.96 479.814 260.79 479.645 260.79 479.442V439.232C260.79 439.232 253.716 439.232 252.058 439.232C251.855 439.232 251.686 439.063 251.686 438.86C251.686 437.81 251.686 435.137 251.686 434.087C251.686 433.918 251.855 433.749 252.058 433.749Z" fill="#4D4D4D"/>
<path d="M274.329 413.745C274.329 413.542 274.498 413.373 274.701 413.373C276.326 413.373 282.08 413.373 283.705 413.373C283.908 413.373 284.077 413.542 284.077 413.745C284.077 438.284 284.077 475.482 284.077 479.442C284.077 479.645 283.908 479.814 283.705 479.814H274.701C274.498 479.814 274.329 479.645 274.329 479.442C274.329 479.442 274.329 415.912 274.329 413.745Z" fill="#4D4D4D"/>
<path d="M259.639 453.954C258.421 453.548 257.202 452.939 256.119 452.228C253.682 450.637 251.787 448.302 250.297 445.797C247.691 441.295 246.337 435.778 246.337 429.517V426.843H254.833C255.002 426.843 255.137 426.707 255.137 426.538V421.427C255.137 421.258 255.002 421.123 254.833 421.123H246.405V413.744C246.405 413.575 246.27 413.439 246.1 413.439H236.488C236.319 413.439 236.183 413.575 236.183 413.744V421.123H226.977C226.808 421.123 226.672 421.258 226.672 421.427V426.538C226.672 426.707 226.808 426.843 226.977 426.843H236.183V429.517C236.183 435.812 234.863 441.295 232.257 445.797C230.802 448.302 228.906 450.603 226.435 452.228C225.352 452.939 224.168 453.582 222.915 453.954C222.78 453.988 222.712 454.292 222.915 454.496C223.254 454.8 226.131 457.305 226.435 457.542C226.571 457.677 227.146 457.745 227.315 457.711C229.955 457.305 232.155 456.12 234.288 454.529C234.728 454.191 235.134 453.852 235.54 453.48C239.297 449.926 240.989 445.865 241.26 445.188C241.531 445.865 243.223 449.926 246.98 453.48C247.387 453.852 247.793 454.191 248.233 454.529C250.365 456.12 252.565 457.305 255.205 457.711C255.408 457.745 255.95 457.677 256.085 457.542C256.39 457.271 259.267 454.8 259.605 454.496C259.876 454.326 259.808 454.022 259.639 453.954Z" fill="#4D4D4D"/>
<path d="M208.158 456.763C208.361 456.763 208.53 456.594 208.53 456.391V451.618C208.53 451.415 208.361 451.246 208.158 451.246H146.827C146.624 451.246 146.455 451.415 146.455 451.618V456.391C146.455 456.594 146.624 456.763 146.827 456.763H172.382V479.474C172.382 479.677 172.551 479.847 172.754 479.847H182.299C182.502 479.847 182.671 479.677 182.671 479.474V456.763H208.158Z" fill="#4D4D4D"/>
<path d="M163.041 441.531C167.034 444.815 171.875 446.473 177.493 446.473C183.179 446.473 188.053 444.815 192.013 441.531C195.973 438.248 198.004 434.254 198.004 429.617C198.004 424.98 196.007 420.953 192.013 417.669C188.053 414.353 183.145 412.66 177.493 412.66C171.875 412.66 167.001 414.353 163.041 417.669C159.08 420.953 157.083 424.98 157.083 429.617C157.083 434.254 159.08 438.248 163.041 441.531ZM170.25 421.562C172.179 419.396 174.616 418.245 177.493 418.245C180.37 418.245 182.841 419.362 184.77 421.562C186.699 423.762 187.715 426.47 187.715 429.617C187.715 432.697 186.699 435.405 184.77 437.605C182.841 439.839 180.37 440.956 177.493 440.956C174.582 440.956 172.145 439.839 170.216 437.571C168.321 435.371 167.339 432.697 167.339 429.584C167.373 426.47 168.321 423.762 170.25 421.562Z" fill="#4D4D4D"/>
<path d="M365.206 439.197H354.781L355.086 438.791C355.831 437.843 356.44 436.32 356.948 434.188C357.455 432.055 357.692 430.058 357.692 428.264V413.778C357.692 413.575 357.523 413.439 357.354 413.439H311.999C311.796 413.439 311.661 413.609 311.661 413.778V418.72C311.661 418.923 311.83 419.058 311.999 419.058H346.963C347.2 419.058 347.301 419.058 347.301 419.058V428.467L347.064 434.052C346.895 435.914 346.557 437.572 345.778 439.129C345.778 439.129 345.304 439.129 344.458 439.129H304.553C304.35 439.129 304.214 439.298 304.214 439.468V444.409C304.214 444.612 304.35 444.748 304.553 444.748H329.43V456.019H311.728C311.525 456.019 311.39 456.154 311.39 456.357V461.299C311.39 461.468 311.525 461.637 311.728 461.637H347.132V479.373C347.132 479.576 347.301 479.745 347.471 479.745H357.185C357.388 479.745 357.523 479.576 357.523 479.373V456.323C357.523 456.12 357.354 455.985 357.185 455.985H339.821V444.714H365.172C365.375 444.714 365.511 444.578 365.511 444.375V439.434C365.545 439.332 365.375 439.197 365.206 439.197Z" fill="#4D4D4D"/>
<path d="M91.8936 195.023V332.475C91.8936 349.5 105.703 363.276 122.694 363.276H389.305C406.33 363.276 420.106 349.466 420.106 332.475V195.023H91.8936Z" fill="#E5E5E5"/>
<path d="M375.766 327.331H279.506C272.229 327.331 266.34 321.442 266.34 314.164C266.34 306.887 272.229 300.998 279.506 300.998H375.766C383.043 300.998 388.933 306.887 388.933 314.164C388.933 321.442 383.043 327.331 375.766 327.331Z" fill="#ED1E1B"/>
<path d="M389.305 119.785H122.694C105.669 119.785 91.8936 133.595 91.8936 150.586V195.027H420.139V150.62C420.106 133.595 406.33 119.785 389.305 119.785ZM307.497 150.721C307.497 157.727 301.811 163.414 294.805 163.414H217.16C210.154 163.414 204.468 157.727 204.468 150.721C204.468 143.715 210.154 138.029 217.16 138.029H294.805C301.845 138.029 307.497 143.715 307.497 150.721Z" fill="#ED1E1B"/>
<path d="M176.916 335.896C208.788 335.896 234.625 310.059 234.625 278.187C234.625 246.316 208.788 220.479 176.916 220.479C145.045 220.479 119.208 246.316 119.208 278.187C119.208 310.059 145.045 335.896 176.916 335.896Z" fill="white"/>
<path d="M176.916 282.213C189.403 282.213 199.526 272.091 199.526 259.604C199.526 247.117 189.403 236.994 176.916 236.994C164.429 236.994 154.307 247.117 154.307 259.604C154.307 272.091 164.429 282.213 176.916 282.213Z" fill="#ED1E1B"/>
<path d="M176.916 325.37C161.821 325.37 148.316 318.533 139.279 307.837C144.119 298.732 153.562 292.471 164.596 292.471C165.205 292.471 165.815 292.572 166.424 292.741C169.775 293.825 173.261 294.502 176.916 294.502C180.606 294.502 184.126 293.825 187.409 292.741C187.984 292.572 188.627 292.471 189.237 292.471C200.271 292.471 209.714 298.732 214.554 307.837C205.517 318.533 192.012 325.37 176.916 325.37Z" fill="#ED1E1B"/>
<path d="M420.139 186.936H91.8936V195.059H420.139V186.936Z" fill="white"/>
<path d="M294.737 318.46L295.921 316.328L297.106 318.46L298.9 317.377L297.715 315.245H300.051V313.079H297.715L298.9 310.946L297.106 309.863L295.921 311.996L294.737 309.863L292.943 310.946L294.128 313.079H291.758V315.245H294.094L292.909 317.377L294.737 318.46ZM306.042 317.377L307.836 318.46L309.02 316.328L310.205 318.46L311.999 317.377L310.814 315.245H313.149V313.079H310.814L311.999 310.946L310.205 309.863L309.02 311.996L307.836 309.863L306.042 310.946L307.226 313.079H304.891V315.245H307.226L306.042 317.377ZM326.248 313.079H323.913L325.097 310.946L323.303 309.863L322.119 311.996L320.934 309.863L319.14 310.946L320.325 313.079H317.99V315.245H320.325L319.14 317.377L320.934 318.46L322.119 316.328L323.303 318.46L325.097 317.377L323.913 315.245H326.248V313.079Z" fill="white"/>
<path d="M334.101 318.46L335.286 316.328L336.47 318.46L338.264 317.377L337.079 315.245H339.415V313.079H337.079L338.264 310.946L336.47 309.863L335.286 311.996L334.101 309.863L332.307 310.946L333.492 313.079H331.156V315.245H333.492L332.307 317.377L334.101 318.46ZM344.39 317.377L346.184 318.46L347.369 316.328L348.554 318.46L350.347 317.377L349.163 315.245H351.498V313.079H349.163L350.347 310.946L348.554 309.863L347.369 311.996L346.184 309.863L344.39 310.946L345.575 313.079H343.24V315.245H345.575L344.39 317.377ZM363.514 313.079H361.178L362.363 310.946L360.569 309.863L359.384 311.996L358.2 309.863L356.406 310.946L357.591 313.079H355.255V315.245H357.591L356.406 317.377L358.2 318.46L359.384 316.328L360.569 318.46L362.363 317.377L361.178 315.245H363.514V313.079Z" fill="white"/>
<path d="M264.783 256.863C264.546 256.998 264.546 257.202 264.749 257.337L284.245 270.199L289.83 243.934L264.783 256.863Z" fill="#F11E14"/>
<path d="M380.133 243.934H375.192C374.921 243.934 374.549 244.035 374.312 244.137L349.604 256.863C349.367 256.965 349.367 257.202 349.57 257.337L368.727 269.962C368.93 270.097 369.336 270.199 369.573 270.199H374.515C374.786 270.199 374.786 270.097 374.582 269.962L355.019 257.1L380.133 244.171C380.404 244.035 380.37 243.934 380.133 243.934Z" fill="#F8810F"/>
<path d="M369.572 243.934H335.252L329.667 270.199H363.988C364.258 270.199 364.292 270.097 364.055 269.962L344.526 257.1L369.606 244.171C369.843 244.035 369.843 243.934 369.572 243.934Z" fill="#F11E14"/>
<path d="M390.659 243.934H385.718C385.447 243.934 385.074 244.035 384.838 244.137L360.129 256.863C359.893 256.965 359.893 257.202 360.096 257.337L379.253 269.962C379.456 270.097 379.862 270.199 380.099 270.199H385.041C385.311 270.199 385.345 270.097 385.108 269.962L365.579 257.1L390.693 244.171C390.93 244.035 390.93 243.934 390.659 243.934Z" fill="#FFBE19"/>
<path d="M368.049 226.74H287.257C282.755 226.74 279.574 229.583 278.863 233.103C278.457 235.033 279.201 236.725 280.657 237.91L309.697 257.067L368.083 226.943C368.32 226.842 368.32 226.74 368.049 226.74Z" fill="#F11E14"/>
<path d="M355.255 287.158L309.698 257.068L272.5 276.226C270.537 277.376 269.081 279.103 268.675 281.032C267.931 284.518 269.86 287.361 274.395 287.361H355.188C355.425 287.395 355.458 287.294 355.255 287.158Z" fill="#F11E14"/>
<path d="M221.255 337.652C236.565 337.652 248.976 325.241 248.976 309.931C248.976 294.622 236.565 282.211 221.255 282.211C205.946 282.211 193.535 294.622 193.535 309.931C193.535 325.241 205.946 337.652 221.255 337.652Z" fill="white"/>
<path d="M237.13 304.991C237.13 311.016 232.256 315.89 226.231 315.89C225.52 315.89 224.844 315.822 224.2 315.687L222.711 317.345C222.44 317.65 222.034 317.853 221.594 317.853H219.293V320.324C219.293 321.136 218.616 321.813 217.803 321.813H215.333V324.284C215.333 325.096 214.656 325.773 213.843 325.773H206.905C206.092 325.773 205.416 325.096 205.416 324.284V319.444C205.416 319.037 205.585 318.665 205.856 318.394L215.874 308.376C215.536 307.293 215.333 306.142 215.333 304.957C215.333 298.933 220.207 294.059 226.231 294.059C232.256 294.059 237.13 298.933 237.13 304.991ZM223.557 303.637C223.557 305.973 225.453 307.902 227.822 307.902C230.191 307.902 232.087 306.007 232.087 303.637C232.087 301.268 230.158 299.373 227.788 299.373C225.419 299.373 223.557 301.302 223.557 303.637Z" fill="#ED1E1B"/>
<path d="M273.414 150.719H238.552C227.484 150.719 218.515 141.749 218.515 130.682V105.533C218.515 94.4655 227.484 85.4961 238.552 85.4961H273.414C284.482 85.4961 293.451 94.4655 293.451 105.533V130.682C293.451 141.749 284.482 150.719 273.414 150.719Z" fill="#A51512"/>
</svg>
