<svg width="512" height="512" viewBox="0 0 512 512" fill="none" xmlns="http://www.w3.org/2000/svg">
<path d="M394.721 510.307H117.279C53.4441 510.307 1.69238 458.555 1.69238 394.72V117.278C1.69238 53.4431 53.4441 1.69141 117.279 1.69141H394.721C458.556 1.69141 510.308 53.4431 510.308 117.278V394.72C510.308 458.555 458.556 510.307 394.721 510.307Z" fill="white"/>
<path d="M394.721 512H117.279C52.5979 512 0 459.402 0 394.721V117.279C0 52.6317 52.5979 0 117.279 0H394.721C459.402 0 512 52.6317 512 117.279V394.721C512 459.402 459.402 512 394.721 512ZM117.279 3.38468C54.4933 3.38468 3.38468 54.4933 3.38468 117.279V394.721C3.38468 457.541 54.4933 508.615 117.279 508.615H394.721C457.541 508.615 508.615 457.507 508.615 394.721V117.279C508.615 54.4933 457.507 3.38468 394.721 3.38468H117.279Z" fill="#D3D3D3"/>
<path d="M364.293 433.071C362.973 431.142 361.078 429.619 358.742 428.569C356.373 427.486 353.53 426.979 350.247 426.979C343.579 426.979 338.062 428.975 333.56 432.902C329.025 436.862 326.08 442.21 324.625 448.877C323.169 455.613 323.812 460.994 326.554 465.022C329.329 469.05 334 471.081 340.668 471.081C343.985 471.081 347.133 470.539 349.908 469.456C352.751 468.339 355.29 466.85 357.49 464.853C359.69 462.89 361.518 460.521 363.007 457.813C364.462 455.173 365.613 452.161 366.358 448.911C367.035 445.763 367.17 442.751 366.865 440.077C366.459 437.336 365.613 435.034 364.293 433.071ZM355.459 454.699C354.647 456.493 353.598 458.185 352.311 459.641C351.025 461.096 349.502 462.281 347.81 463.127C346.151 464.007 344.188 464.447 342.123 464.447C339.991 464.447 338.265 464.007 336.911 463.127C335.591 462.315 334.609 461.13 333.966 459.641C333.323 458.185 332.985 456.493 332.951 454.699C332.883 452.837 333.053 450.908 333.526 448.911C333.933 446.982 334.609 445.087 335.388 443.259C336.302 441.499 337.351 439.84 338.603 438.419C339.923 436.896 341.379 435.779 343.139 434.966C344.865 434.086 346.727 433.68 348.724 433.68C350.754 433.68 352.447 434.086 353.834 434.966C355.154 435.779 356.102 436.896 356.779 438.385C357.49 439.806 357.795 441.465 357.93 443.259C357.998 445.087 357.828 447.016 357.388 448.945C356.982 450.908 356.339 452.804 355.459 454.699Z" fill="#4D4D4D"/>
<path d="M153.699 433.071C152.345 431.142 150.517 429.619 148.114 428.569C145.779 427.486 142.902 426.979 139.619 426.979C132.951 426.979 127.4 428.975 122.898 432.902C118.397 436.862 115.452 442.21 113.997 448.877C112.575 455.613 113.218 460.994 115.926 465.022C118.701 469.05 123.372 471.081 130.074 471.081C133.391 471.081 136.471 470.539 139.314 469.456C142.123 468.339 144.662 466.85 146.828 464.853C148.994 462.89 150.89 460.521 152.379 457.813C153.868 455.173 154.951 452.161 155.696 448.911C156.373 445.763 156.542 442.751 156.238 440.077C155.899 437.336 155.053 435.034 153.699 433.071ZM144.899 454.699C144.087 456.493 143.003 458.185 141.751 459.641C140.465 461.096 139.01 462.281 137.283 463.127C135.557 464.007 133.696 464.447 131.563 464.447C129.499 464.447 127.739 464.007 126.385 463.127C125.065 462.315 124.083 461.096 123.406 459.641C122.797 458.185 122.458 456.493 122.425 454.699C122.391 452.837 122.56 450.908 123 448.911C123.372 446.982 124.049 445.087 124.895 443.259C125.775 441.499 126.825 439.84 128.145 438.419C129.397 436.896 130.92 435.779 132.646 434.966C134.339 434.086 136.2 433.68 138.265 433.68C140.262 433.68 141.92 434.086 143.24 434.966C144.628 435.779 145.61 436.896 146.253 438.385C146.93 439.806 147.302 441.465 147.37 443.259C147.437 445.087 147.268 447.016 146.794 448.945C146.388 450.908 145.779 452.804 144.899 454.699Z" fill="#4D4D4D"/>
<path d="M399.764 428.399C399.764 428.399 395.906 427.486 395.838 427.519C393.638 427.046 391.878 427.012 390.05 427.012C388.053 427.012 386.09 427.249 384.161 427.756C382.265 428.23 380.472 429.043 378.813 430.024C377.121 431.107 375.665 432.393 374.514 434.086C373.296 435.778 372.45 437.741 371.942 440.009C371.57 441.972 371.468 443.563 371.874 444.951C372.213 446.304 372.856 447.489 373.702 448.403C374.616 449.283 375.564 450.061 376.647 450.603C377.696 451.212 379.05 451.821 380.641 452.498C383.01 453.446 384.736 454.394 385.785 455.206C386.767 456.086 387.139 457.305 386.767 458.862C386.361 460.655 385.312 462.043 383.484 462.957C379.93 464.819 375.767 464.649 372.078 463.363C370.961 462.957 369.911 462.449 368.896 461.942C368.693 461.84 368.524 461.942 368.422 462.111C368.422 462.111 366.222 468.846 366.154 469.049C366.087 469.286 366.222 469.456 366.425 469.489C366.696 469.591 367.61 469.828 368.659 470.031C371.367 470.64 374.041 471.013 376.85 471.013C379.118 471.013 381.284 470.809 383.382 470.268C385.447 469.794 387.342 469.049 389.069 468.034C390.795 466.985 392.284 465.631 393.469 463.939C394.653 462.28 395.567 460.351 396.075 458.083C396.481 456.086 396.515 454.394 396.109 452.972C395.736 451.551 395.093 450.4 394.179 449.418C393.266 448.471 392.25 447.726 391.167 447.184C390.084 446.609 388.696 445.966 387.072 445.289C384.736 444.341 383.112 443.495 382.13 442.717C381.115 441.972 380.81 440.889 381.115 439.467C381.318 438.384 381.758 437.437 382.367 436.624C382.976 435.846 383.619 435.236 384.364 434.864C385.142 434.39 385.921 434.052 386.801 433.849C389.272 433.206 391.912 433.544 394.315 434.255L397.395 435.203C397.564 435.27 397.801 435.169 397.869 434.966L399.967 428.738C400.069 428.636 399.933 428.433 399.764 428.399Z" fill="#4D4D4D"/>
<path d="M321.883 434.392C321.274 432.7 320.326 431.38 318.837 430.399C317.381 429.417 315.655 428.74 313.624 428.368C311.593 427.928 309.36 427.725 306.923 427.725H296.498C296.295 427.725 296.058 427.86 296.024 428.097L286.987 469.965C286.953 470.168 287.054 470.338 287.291 470.338H294.975C295.212 470.338 295.381 470.168 295.449 469.965L298.765 454.7C304.655 454.7 309.36 453.651 311.729 452.602C312.88 452.162 313.895 451.654 314.91 451.045C316.637 449.962 318.092 448.54 319.31 446.814C320.495 445.054 321.341 442.99 321.849 440.553C322.458 438.183 322.458 436.119 321.883 434.392ZM312.88 441.026C312.372 443.328 311.289 444.953 309.596 445.9C308.886 446.273 305.839 447.627 300.255 447.627L303.098 434.426H306.144C308.547 434.426 310.375 435.002 311.695 435.949C312.981 437.066 313.387 438.725 312.88 441.026Z" fill="#4D4D4D"/>
<path d="M437.368 434.426C437.537 434.426 437.741 434.256 437.808 434.087L439.094 428.13C439.128 427.893 439.027 427.758 438.79 427.758H406.703C406.466 427.758 406.229 427.893 406.229 428.13C406.229 428.13 405.045 433.918 405.011 434.087C404.977 434.256 405.078 434.426 405.315 434.426H416.722C416.891 434.426 417.06 434.595 416.959 434.764L409.411 469.965C409.377 470.168 409.512 470.337 409.682 470.337H417.466C417.636 470.337 417.872 470.168 417.872 469.965L425.488 434.764C425.522 434.561 425.725 434.426 425.928 434.426H437.368Z" fill="#4D4D4D"/>
<path d="M193.029 432.87C192.25 431.279 191.065 430.128 189.407 429.384C187.749 428.605 185.853 428.199 183.755 427.996C181.622 427.793 178.915 427.691 175.665 427.691H166.831C166.594 427.691 166.425 427.827 166.324 428.064L157.286 469.932C157.253 470.135 157.388 470.305 157.591 470.305H165.342C165.545 470.305 165.748 470.135 165.782 469.932L169.573 452.569H172.314C174.041 452.569 175.225 452.907 175.868 453.483C176.511 454.126 176.985 455.277 177.358 456.935L179.558 469.932C179.591 470.135 179.795 470.305 180.031 470.305H188.73C188.933 470.305 189.102 470.135 189.035 469.932L185.887 453.652C185.616 452.433 185.21 451.452 184.635 450.606C184.093 449.793 183.315 449.286 182.299 449.218C185.075 448.846 187.478 447.661 189.475 445.867C191.472 444.006 192.69 441.839 193.266 439.267C193.875 436.559 193.773 434.427 193.029 432.87ZM184.195 439.978C183.924 441.23 183.45 442.279 182.773 443.058C182.062 443.87 181.25 444.446 180.302 444.852C179.321 445.258 178.271 445.529 177.256 445.732C176.241 445.833 175.124 445.901 173.837 445.901H170.961L173.465 434.393H176.274C177.594 434.393 178.745 434.427 179.693 434.562C180.675 434.664 181.555 434.968 182.333 435.307C183.112 435.713 183.721 436.255 184.059 437.033C184.398 437.744 184.499 438.793 184.195 439.978Z" fill="#4D4D4D"/>
<path d="M230.87 428.097C230.87 427.86 230.768 427.725 230.565 427.725H205.857C205.62 427.725 205.417 427.86 205.383 428.097L196.312 469.965C196.278 470.168 196.447 470.338 196.617 470.338H221.494C221.663 470.338 221.866 470.168 221.934 469.965L223.186 464.042C223.254 463.805 223.085 463.67 222.916 463.67H206.568L209.174 451.654H223.965C224.168 451.654 224.371 451.519 224.371 451.316L225.691 445.393C225.759 445.19 225.623 445.02 225.42 445.02H210.595L212.863 434.46H229.042C229.279 434.46 229.482 434.291 229.549 434.122L230.87 428.097Z" fill="#4D4D4D"/>
<path d="M117.483 427.725H106.279C106.076 427.725 105.772 427.86 105.602 427.962L86.5466 446.07L90.439 428.097C90.439 427.86 90.3375 427.725 90.1344 427.725H82.4173C82.1804 427.725 82.0112 427.86 81.9435 428.097L72.9064 469.965C72.8387 470.168 73.0079 470.338 73.1772 470.338H80.9281C81.1312 470.338 81.3342 470.168 81.4019 469.965L85.6328 450.571L96.5991 469.999C96.7345 470.236 96.9376 470.338 97.1407 470.338H107.498C107.735 470.338 107.836 470.236 107.701 469.999L95.3806 448.913L117.584 427.995C117.72 427.86 117.686 427.725 117.483 427.725Z" fill="#4D4D4D"/>
<path d="M261.466 428.097C261.399 427.86 261.23 427.725 261.026 427.725H252.666C252.463 427.725 252.159 427.86 252.091 428.063L227.518 469.999C227.383 470.236 227.518 470.338 227.755 470.338H235.303C235.54 470.338 235.811 470.236 235.912 469.999L242.681 457.916C242.783 457.713 243.054 457.611 243.257 457.611H257.168C257.371 457.611 257.54 457.781 257.54 457.95C257.54 457.984 257.54 457.984 257.54 457.984L259.063 469.999C259.097 470.202 259.233 470.372 259.503 470.372H267.66C267.897 470.372 268.067 470.202 267.999 469.999L261.466 428.097ZM246.946 450.91C246.709 450.91 246.675 450.74 246.709 450.571L254.562 436.559C254.629 436.423 254.866 436.423 254.9 436.626L256.592 450.537C256.66 450.707 256.525 450.91 256.288 450.91H246.946Z" fill="#4D4D4D"/>
<path d="M91.8936 195.057V332.508C91.8936 349.533 105.703 363.309 122.694 363.309H389.305C406.33 363.309 420.106 349.499 420.106 332.508V195.057H91.8936Z" fill="#E5E5E5"/>
<path d="M375.766 327.331H279.506C272.229 327.331 266.34 321.442 266.34 314.164C266.34 306.887 272.229 300.998 279.506 300.998H375.766C383.043 300.998 388.933 306.887 388.933 314.164C388.933 321.442 383.043 327.331 375.766 327.331Z" fill="#ED1E1B"/>
<path d="M389.305 119.818H122.694C105.669 119.818 91.8936 133.628 91.8936 150.619V195.06H420.139V150.619C420.106 133.594 406.33 119.818 389.305 119.818ZM307.497 150.72C307.497 157.727 301.811 163.413 294.805 163.413H217.16C210.154 163.413 204.468 157.727 204.468 150.72C204.468 143.714 210.154 138.028 217.16 138.028H294.805C301.845 138.062 307.497 143.748 307.497 150.72Z" fill="#ED1E1B"/>
<path d="M176.916 335.896C208.788 335.896 234.625 310.059 234.625 278.187C234.625 246.316 208.788 220.479 176.916 220.479C145.045 220.479 119.208 246.316 119.208 278.187C119.208 310.059 145.045 335.896 176.916 335.896Z" fill="white"/>
<path d="M176.916 282.247C189.403 282.247 199.526 272.124 199.526 259.637C199.526 247.15 189.403 237.027 176.916 237.027C164.429 237.027 154.307 247.15 154.307 259.637C154.307 272.124 164.429 282.247 176.916 282.247Z" fill="#ED1E1B"/>
<path d="M176.916 325.403C161.821 325.403 148.316 318.566 139.279 307.87C144.119 298.766 153.562 292.504 164.596 292.504C165.205 292.504 165.815 292.605 166.424 292.775C169.775 293.858 173.261 294.535 176.916 294.535C180.606 294.535 184.126 293.858 187.409 292.775C187.984 292.605 188.627 292.504 189.237 292.504C200.271 292.504 209.714 298.766 214.554 307.87C205.517 318.566 192.012 325.403 176.916 325.403Z" fill="#ED1E1B"/>
<path d="M420.139 186.936H91.8936V195.059H420.139V186.936Z" fill="white"/>
<path d="M294.737 318.46L295.921 316.328L297.106 318.46L298.9 317.377L297.715 315.245H300.051V313.079H297.715L298.9 310.946L297.106 309.863L295.921 311.996L294.737 309.863L292.943 310.946L294.128 313.079H291.758V315.245H294.094L292.909 317.377L294.737 318.46ZM306.042 317.377L307.836 318.46L309.02 316.328L310.205 318.46L311.999 317.377L310.814 315.245H313.149V313.079H310.814L311.999 310.946L310.205 309.863L309.02 311.996L307.836 309.863L306.042 310.946L307.226 313.079H304.891V315.245H307.226L306.042 317.377ZM326.248 313.113H323.913L325.097 310.98L323.303 309.897L322.119 312.029L320.934 309.897L319.14 310.98L320.325 313.113H317.99V315.279H320.325L319.14 317.411L320.934 318.494L322.119 316.362L323.303 318.494L325.097 317.411L323.913 315.279H326.248V313.113Z" fill="white"/>
<path d="M334.101 318.46L335.286 316.328L336.47 318.46L338.264 317.377L337.079 315.245H339.415V313.079H337.079L338.264 310.946L336.47 309.863L335.286 311.996L334.101 309.863L332.307 310.946L333.492 313.079H331.156V315.245H333.492L332.307 317.377L334.101 318.46ZM344.39 317.377L346.184 318.46L347.369 316.328L348.554 318.46L350.347 317.377L349.163 315.245H351.498V313.079H349.163L350.347 310.946L348.554 309.863L347.369 311.996L346.184 309.863L344.39 310.946L345.575 313.079H343.24V315.245H345.575L344.39 317.377ZM363.514 313.113H361.178L362.363 310.98L360.569 309.897L359.384 312.029L358.2 309.897L356.406 310.98L357.591 313.113H355.255V315.279H357.591L356.406 317.411L358.2 318.494L359.384 316.362L360.569 318.494L362.363 317.411L361.178 315.279H363.514V313.113Z" fill="white"/>
<path d="M264.783 256.863C264.546 256.998 264.546 257.202 264.749 257.337L284.245 270.199L289.83 243.934L264.783 256.863Z" fill="#F11E14"/>
<path d="M380.133 243.969H375.192C374.921 243.969 374.549 244.07 374.312 244.172L349.604 256.898C349.367 257 349.367 257.237 349.57 257.372L368.727 269.997C368.93 270.132 369.336 270.234 369.573 270.234H374.515C374.786 270.234 374.786 270.132 374.582 269.997L355.019 257.135L380.133 244.206C380.404 244.036 380.37 243.969 380.133 243.969Z" fill="#F8810F"/>
<path d="M369.572 243.969H335.252L329.667 270.234H363.988C364.258 270.234 364.292 270.132 364.055 269.997L344.526 257.135L369.606 244.206C369.843 244.036 369.809 243.969 369.572 243.969Z" fill="#F11E14"/>
<path d="M390.659 243.969H385.718C385.447 243.969 385.074 244.07 384.838 244.172L360.129 256.898C359.893 257 359.893 257.237 360.096 257.372L379.253 269.997C379.456 270.132 379.862 270.234 380.099 270.234H385.041C385.311 270.234 385.345 270.132 385.108 269.997L365.579 257.135L390.693 244.206C390.93 244.036 390.93 243.969 390.659 243.969Z" fill="#FFBE19"/>
<path d="M368.049 226.773H287.257C282.755 226.773 279.574 229.617 278.863 233.137C278.457 235.066 279.201 236.758 280.657 237.943L309.697 257.1L368.083 226.977C368.32 226.841 368.32 226.773 368.049 226.773Z" fill="#F11E14"/>
<path d="M355.255 287.157L309.698 257.102L272.5 276.259C270.537 277.41 269.081 279.136 268.675 281.065C267.931 284.551 269.86 287.394 274.395 287.394H355.188C355.425 287.428 355.458 287.293 355.255 287.157Z" fill="#F11E14"/>
<path d="M221.255 337.691C236.565 337.691 248.976 325.28 248.976 309.971C248.976 294.661 236.565 282.25 221.255 282.25C205.946 282.25 193.535 294.661 193.535 309.971C193.535 325.28 205.946 337.691 221.255 337.691Z" fill="white"/>
<path d="M237.13 304.994C237.13 311.019 232.256 315.893 226.231 315.893C225.52 315.893 224.844 315.825 224.2 315.689L222.711 317.348C222.44 317.653 222.034 317.856 221.594 317.856H219.293V320.326C219.293 321.139 218.616 321.816 217.803 321.816H215.333V324.287C215.333 325.099 214.656 325.776 213.843 325.776H206.905C206.092 325.776 205.416 325.099 205.416 324.287V319.514C205.416 319.108 205.585 318.736 205.856 318.465L215.874 308.446C215.536 307.363 215.333 306.212 215.333 305.028C215.333 299.003 220.207 294.129 226.231 294.129C232.256 294.095 237.13 298.935 237.13 304.994ZM223.557 303.64C223.557 305.975 225.453 307.905 227.822 307.905C230.191 307.905 232.087 306.009 232.087 303.64C232.087 301.271 230.158 299.409 227.788 299.409C225.419 299.409 223.557 301.305 223.557 303.64Z" fill="#ED1E1B"/>
<path d="M273.414 150.719H238.552C227.484 150.719 218.515 141.749 218.515 130.682V105.533C218.515 94.4655 227.484 85.4961 238.552 85.4961H273.414C284.482 85.4961 293.451 94.4655 293.451 105.533V130.682C293.451 141.749 284.482 150.719 273.414 150.719Z" fill="#A51512"/>
</svg>
