<svg width="100" height="100" viewBox="0 0 100 100" fill="none" xmlns="http://www.w3.org/2000/svg">
<path d="M58.3334 49.9993L50.0001 58.3327L41.6667 49.9993L50.0001 41.666L58.3334 49.9993ZM50.0001 24.9993L58.8334 33.8327L69.2501 23.416L50.0001 4.16602L30.7501 23.416L41.1667 33.8327L50.0001 24.9993ZM25.0001 49.9993L33.8334 41.166L23.4167 30.7493L4.16675 49.9993L23.4167 69.2493L33.8334 58.8327L25.0001 49.9993ZM75.0001 49.9993L66.1667 58.8327L76.5834 69.2493L95.8334 49.9993L76.5834 30.7493L66.1667 41.166L75.0001 49.9993ZM50.0001 74.9993L41.1667 66.166L30.7501 76.5827L50.0001 95.8327L69.2501 76.5827L58.8334 66.166L50.0001 74.9993Z" fill="white"/>
</svg>
