<svg width="100" height="100" viewBox="0 0 100 100" fill="none" xmlns="http://www.w3.org/2000/svg">
<path d="M49.9967 8.33398C26.9967 8.33398 8.33008 27.0007 8.33008 50.0007C8.33008 73.0007 26.9967 91.6673 49.9967 91.6673C72.9967 91.6673 91.6634 73.0007 91.6634 50.0007C91.6634 27.0007 72.9967 8.33398 49.9967 8.33398ZM29.4551 76.1673C31.2467 72.4173 42.1634 68.7507 49.9967 68.7507C57.8301 68.7507 68.7884 72.4173 70.5384 76.1673C64.8717 80.6673 57.7467 83.334 49.9967 83.334C42.2467 83.334 35.1217 80.6673 29.4551 76.1673ZM76.4967 70.1257C70.5384 62.8757 56.0801 60.4173 49.9967 60.4173C43.9134 60.4173 29.4551 62.8757 23.4967 70.1257C19.2467 64.5423 16.6634 57.584 16.6634 50.0007C16.6634 31.6257 31.6217 16.6673 49.9967 16.6673C68.3717 16.6673 83.3301 31.6257 83.3301 50.0007C83.3301 57.584 80.7467 64.5423 76.4967 70.1257V70.1257ZM49.9967 25.0007C41.9134 25.0007 35.4134 31.5007 35.4134 39.584C35.4134 47.6673 41.9134 54.1673 49.9967 54.1673C58.0801 54.1673 64.5801 47.6673 64.5801 39.584C64.5801 31.5007 58.0801 25.0007 49.9967 25.0007ZM49.9967 45.834C46.5384 45.834 43.7467 43.0423 43.7467 39.584C43.7467 36.1257 46.5384 33.334 49.9967 33.334C53.4551 33.334 56.2467 36.1257 56.2467 39.584C56.2467 43.0423 53.4551 45.834 49.9967 45.834Z" fill="white"/>
</svg>
