<svg width="100" height="100" viewBox="0 0 100 100" fill="none" xmlns="http://www.w3.org/2000/svg">
<path d="M79.1667 12.4993H61.75C60 7.66602 55.4167 4.16602 50 4.16602C44.5833 4.16602 40 7.66602 38.25 12.4993H20.8333C16.25 12.4993 12.5 16.2493 12.5 20.8327V79.166C12.5 83.7494 16.25 87.4994 20.8333 87.4994H79.1667C83.75 87.4994 87.5 83.7494 87.5 79.166V20.8327C87.5 16.2493 83.75 12.4993 79.1667 12.4993ZM50 11.4577C50.9167 11.4577 51.7083 11.8743 52.2917 12.4993C52.7917 13.041 53.125 13.791 53.125 14.5827C53.125 16.291 51.7083 17.7077 50 17.7077C48.2917 17.7077 46.875 16.291 46.875 14.5827C46.875 13.791 47.2083 13.041 47.7083 12.4993C48.2917 11.8743 49.0833 11.4577 50 11.4577ZM79.1667 79.166H20.8333V20.8327H79.1667V79.166ZM50 24.9994C43.125 24.9994 37.5 30.6244 37.5 37.4994C37.5 44.3744 43.125 49.9994 50 49.9994C56.875 49.9994 62.5 44.3744 62.5 37.4994C62.5 30.6244 56.875 24.9994 50 24.9994ZM50 41.666C47.7083 41.666 45.8333 39.791 45.8333 37.4994C45.8333 35.2077 47.7083 33.3327 50 33.3327C52.2917 33.3327 54.1667 35.2077 54.1667 37.4994C54.1667 39.791 52.2917 41.666 50 41.666ZM25 68.6244V74.9994H75V68.6244C75 58.2077 58.4583 53.7077 50 53.7077C41.5417 53.7077 25 58.166 25 68.6244ZM34.625 66.666C37.5 64.3327 44.5417 61.9994 50 61.9994C55.4583 61.9994 62.5417 64.3327 65.375 66.666H34.625Z" fill="white"/>
</svg>
