<svg width="100" height="100" viewBox="0 0 100 100" fill="none" xmlns="http://www.w3.org/2000/svg">
<path d="M50.0016 29.1667V12.5H8.33496V87.5H91.6683V29.1667H50.0016ZM25.0016 79.1667H16.6683V70.8333H25.0016V79.1667ZM25.0016 62.5H16.6683V54.1667H25.0016V62.5ZM25.0016 45.8333H16.6683V37.5H25.0016V45.8333ZM25.0016 29.1667H16.6683V20.8333H25.0016V29.1667ZM41.6683 79.1667H33.335V70.8333H41.6683V79.1667ZM41.6683 62.5H33.335V54.1667H41.6683V62.5ZM41.6683 45.8333H33.335V37.5H41.6683V45.8333ZM41.6683 29.1667H33.335V20.8333H41.6683V29.1667ZM83.335 79.1667H50.0016V70.8333H58.335V62.5H50.0016V54.1667H58.335V45.8333H50.0016V37.5H83.335V79.1667ZM75.0016 45.8333H66.6683V54.1667H75.0016V45.8333ZM75.0016 62.5H66.6683V70.8333H75.0016V62.5Z" fill="white"/>
</svg>
