<svg width="100" height="100" viewBox="0 0 100 100" fill="none" xmlns="http://www.w3.org/2000/svg">
<path fill-rule="evenodd" clip-rule="evenodd" d="M83.3333 12.5H16.6666C12.0833 12.5 8.33325 16.25 8.33325 20.8333V79.1667C8.33325 83.75 12.0833 87.5 16.6666 87.5H83.3333C87.9166 87.5 91.6666 83.75 91.6666 79.1667V20.8333C91.6666 16.25 87.9166 12.5 83.3333 12.5ZM83.3333 79.1667H16.6666V20.8333H83.3333V79.1667Z" fill="white"/>
<path fill-rule="evenodd" clip-rule="evenodd" d="M80.875 43.4167L74.9583 37.5L61.75 50.7083L55.875 44.7917L50 50.6667L61.75 62.5L80.875 43.4167Z" fill="white"/>
<path d="M41.6666 29.166H20.8333V37.4993H41.6666V29.166Z" fill="white"/>
<path d="M41.6666 45.834H20.8333V54.1673H41.6666V45.834Z" fill="white"/>
<path d="M41.6666 62.5H20.8333V70.8333H41.6666V62.5Z" fill="white"/>
</svg>
