<svg width="100" height="100" viewBox="0 0 100 100" fill="none" xmlns="http://www.w3.org/2000/svg">
<path d="M29.1667 45.834H37.5V54.1673H29.1667V45.834ZM87.5 25.0007V83.334C87.5 87.9173 83.75 91.6673 79.1667 91.6673H20.8333C16.2083 91.6673 12.5 87.9173 12.5 83.334L12.5417 25.0007C12.5417 20.4173 16.2083 16.6673 20.8333 16.6673H25V8.33398H33.3333V16.6673H66.6667V8.33398H75V16.6673H79.1667C83.75 16.6673 87.5 20.4173 87.5 25.0007ZM20.8333 33.334H79.1667V25.0007H20.8333V33.334ZM79.1667 83.334V41.6673H20.8333V83.334H79.1667ZM62.5 54.1673H70.8333V45.834H62.5V54.1673ZM45.8333 54.1673H54.1667V45.834H45.8333V54.1673Z" fill="white"/>
</svg>
