<svg width="100" height="100" viewBox="0 0 100 100" fill="none" xmlns="http://www.w3.org/2000/svg">
<path d="M87.164 37.0256C83.0298 31.2212 77.7677 26.669 71.5035 23.4534C58.3497 16.6886 41.5656 16.7304 28.4536 23.4951C22.1891 26.711 16.9269 31.3051 12.7928 37.1512L12.7924 37.1519C12.0954 38.1539 12.312 39.5084 13.3174 40.2078L13.319 40.2089L87.0828 37.084M87.164 37.0256C87.1641 37.0257 87.1642 37.0258 87.1643 37.026L87.0828 37.084M87.164 37.0256C87.1639 37.0255 87.1638 37.0253 87.1637 37.0252L87.0828 37.084M87.164 37.0256C87.863 37.9873 87.6444 39.384 86.6399 40.0827C85.6381 40.7797 84.2839 40.5632 83.5844 39.5582M87.0828 37.084C87.7495 38.0007 87.5412 39.334 86.5828 40.0007C85.6245 40.6673 84.3328 40.459 83.6662 39.5007M83.5844 39.5582C83.5845 39.5584 83.5847 39.5586 83.5848 39.5588L83.6662 39.5007M83.5844 39.5582C83.5843 39.5581 83.5842 39.5579 83.5841 39.5578L83.6662 39.5007M83.5844 39.5582L83.6662 39.5007M59.9719 75.8343L59.9722 75.8345C62.9112 77.8214 66.3491 78.7757 70.4995 78.7757C71.4932 78.7757 73.1538 78.6513 74.8151 78.3606C75.9957 78.1422 77.13 78.9298 77.3479 80.1495C77.5663 81.33 76.7789 82.4642 75.5594 82.6823C75.5592 82.6824 75.559 82.6824 75.5587 82.6824L75.5411 82.584C73.1661 83.0423 71.0828 83.084 70.4995 83.084C65.5412 83.084 61.1662 81.834 57.5828 79.3757L59.9719 75.8343ZM59.9719 75.8343C54.9151 72.4355 51.9328 66.9244 51.9328 61.084C51.9328 59.8621 50.9714 58.9007 49.7495 58.9007C48.5276 58.9007 47.5662 59.8621 47.5662 61.084C47.5662 68.3684 51.2919 75.2319 57.5262 79.4581L59.9719 75.8343ZM26.8805 18.4636L26.881 18.4633C33.9907 14.555 41.8074 12.6007 50.0412 12.6007C58.3149 12.6007 65.2155 14.3459 73.2017 18.4635C73.5089 18.6386 73.8588 18.7257 74.2078 18.7257C74.9958 18.7257 75.738 18.2876 76.1299 17.5051C76.6972 16.4558 76.3026 15.1456 75.2123 14.5786L75.2119 14.5784C66.6989 10.1967 58.9333 8.23398 50.0412 8.23398C41.0662 8.23398 32.5498 10.4048 24.7851 14.6211C23.7359 15.1895 23.344 16.5421 23.9116 17.5899L23.9115 17.59L23.9131 17.5927C24.5223 18.637 25.8306 19.0322 26.8805 18.4636ZM16.2921 39.6797C16.2929 39.6782 16.2938 39.6768 16.2946 39.6753L16.2078 39.6257L16.2892 39.6838C16.2902 39.6824 16.2911 39.6811 16.2921 39.6797ZM34.5452 77.077L34.5449 77.0765C32.013 72.5938 30.6828 67.0697 30.6828 61.084C30.6828 51.0614 39.3407 42.8923 49.9995 42.8923C60.6583 42.8923 69.3162 51.0614 69.3162 61.084C69.3162 62.3059 70.2776 63.2673 71.4995 63.2673C72.7214 63.2673 73.6828 62.3059 73.6828 61.084C73.6828 48.6492 63.0501 38.5257 49.9995 38.5257C36.9489 38.5257 26.3162 48.6492 26.3162 61.084C26.3162 67.8066 27.8193 74.0738 30.7037 79.2159C33.5003 84.2663 35.4646 86.607 39.0936 90.2362C39.4898 90.6752 40.059 90.8923 40.6245 90.8923C41.1927 90.8923 41.7579 90.6736 42.2334 90.2413L42.2336 90.2415L42.2387 90.2362C43.067 89.3643 43.067 88.012 42.2387 87.1401L42.2373 87.1387C39.033 83.8928 37.2061 81.8583 34.5452 77.077ZM61.5561 91.6804L61.5586 91.681C61.7266 91.723 61.9449 91.7673 62.1245 91.7673C63.043 91.7673 63.9602 91.1133 64.18 90.1076C64.4838 88.9743 63.8306 87.7522 62.6503 87.4457C56.7911 85.825 53.015 83.6665 49.0699 79.763C44.0474 74.782 41.3078 68.141 41.3078 61.0423C41.3078 56.6456 45.1315 53.059 49.8745 53.059C54.6175 53.059 58.4412 56.6456 58.4412 61.0423C58.4412 67.8518 64.2403 73.3923 71.3745 73.3923C78.5087 73.3923 84.3078 67.8518 84.3078 61.0423C84.3078 42.9822 68.8414 28.3173 49.8328 28.3173C36.338 28.3173 24.01 35.8793 18.4509 47.541L18.4508 47.5412C16.5686 51.5146 15.6078 56.0712 15.6078 61.084C15.6078 66.7212 16.6101 72.1495 18.6556 77.6184C19.0494 78.7113 20.3147 79.3221 21.4506 78.8862C22.5881 78.4914 23.1537 77.2236 22.718 76.0902C20.2235 69.4381 19.9328 64.326 19.9328 61.084C19.9328 56.7633 20.7637 52.8202 22.3813 49.4607L22.3814 49.4604C27.2387 39.289 38.0355 32.7257 49.8328 32.7257C66.45 32.7257 79.9411 45.4364 79.9411 61.084C79.9411 65.4807 76.1175 69.0673 71.3745 69.0673C66.6315 69.0673 62.8078 65.4807 62.8078 61.084C62.8078 54.2745 57.0087 48.734 49.8745 48.734C42.7403 48.734 36.9412 54.2745 36.9412 61.084C36.9412 69.3606 40.1601 77.0945 46.0124 82.905L46.0128 82.9053C50.5674 87.3764 54.916 89.8428 61.5561 91.6804Z" fill="white" stroke="white" stroke-width="0.2"/>
</svg>
