<svg width="100" height="100" viewBox="0 0 100 100" fill="none" xmlns="http://www.w3.org/2000/svg">
<path d="M16.6665 43.75C13.2082 43.75 10.4165 46.5417 10.4165 50C10.4165 53.4583 13.2082 56.25 16.6665 56.25C20.1248 56.25 22.9165 53.4583 22.9165 50C22.9165 46.5417 20.1248 43.75 16.6665 43.75ZM16.6665 18.75C13.2082 18.75 10.4165 21.5417 10.4165 25C10.4165 28.4583 13.2082 31.25 16.6665 31.25C20.1248 31.25 22.9165 28.4583 22.9165 25C22.9165 21.5417 20.1248 18.75 16.6665 18.75ZM16.6665 68.75C13.2082 68.75 10.4165 71.5833 10.4165 75C10.4165 78.4167 13.2498 81.25 16.6665 81.25C20.0832 81.25 22.9165 78.4167 22.9165 75C22.9165 71.5833 20.1248 68.75 16.6665 68.75ZM29.1665 79.1667H87.4998V70.8333H29.1665V79.1667ZM29.1665 54.1667H87.4998V45.8333H29.1665V54.1667ZM29.1665 20.8333V29.1667H87.4998V20.8333H29.1665Z" fill="white"/>
</svg>
