<svg width="100" height="100" viewBox="0 0 100 100" fill="none" xmlns="http://www.w3.org/2000/svg">
<path d="M45.8333 59.041L36.7917 49.9993L45.8333 40.9577L39.9583 35.041L25 49.9993L39.9583 64.9577L45.8333 59.041Z" fill="white"/>
<path d="M60.0415 64.9577L74.9998 49.9993L60.0415 35.041L54.1665 40.9577L63.2082 49.9993L54.1665 59.041L60.0415 64.9577Z" fill="white"/>
<path d="M79.1667 12.4993H61.75C60 7.66602 55.4167 4.16602 50 4.16602C44.5833 4.16602 40 7.66602 38.25 12.4993H20.8333C20.25 12.4993 19.7083 12.541 19.1667 12.666C17.5417 12.9993 16.0833 13.8327 14.9583 14.9577C14.2083 15.7077 13.5833 16.6244 13.1667 17.6244C12.75 18.5827 12.5 19.666 12.5 20.8327V62.4994V66.666V79.166C12.5 80.291 12.75 81.416 13.1667 82.416C13.5833 83.416 14.2083 84.291 14.9583 85.0827C16.0833 86.2077 17.5417 87.041 19.1667 87.3744C19.7083 87.4577 20.25 87.4994 20.8333 87.4994H79.1667C83.75 87.4994 87.5 83.7494 87.5 79.166V66.666V62.4994V20.8327C87.5 16.2493 83.75 12.4993 79.1667 12.4993ZM50 11.4577C51.7083 11.4577 53.125 12.8743 53.125 14.5827C53.125 16.291 51.7083 17.7077 50 17.7077C48.2917 17.7077 46.875 16.291 46.875 14.5827C46.875 12.8743 48.2917 11.4577 50 11.4577ZM79.1667 62.4994V66.666V79.166H20.8333V66.666V62.4994V20.8327H79.1667V62.4994Z" fill="white"/>
</svg>
