<svg width="100" height="100" viewBox="0 0 100 100" fill="none" xmlns="http://www.w3.org/2000/svg">
<path d="M75.0016 50H58.335V56.25H75.0016V50Z" fill="white"/>
<path d="M75.0016 62.5H58.335V68.75H75.0016V62.5Z" fill="white"/>
<path d="M83.335 29.1693H62.5016V16.6693C62.5016 12.0859 58.7516 8.33594 54.1683 8.33594H45.835C41.2516 8.33594 37.5016 12.0859 37.5016 16.6693V29.1693H16.6683C12.085 29.1693 8.33496 32.9193 8.33496 37.5026V83.3359C8.33496 87.9193 12.085 91.6693 16.6683 91.6693H83.335C87.9183 91.6693 91.6683 87.9193 91.6683 83.3359V37.5026C91.6683 32.9193 87.9183 29.1693 83.335 29.1693ZM45.835 29.1693V16.6693H54.1683V29.1693V37.5026H45.835V29.1693ZM83.335 83.3359H16.6683V37.5026H37.5016C37.5016 42.0859 41.2516 45.8359 45.835 45.8359H54.1683C58.7516 45.8359 62.5016 42.0859 62.5016 37.5026H83.335V83.3359Z" fill="white"/>
<path d="M37.5 62.5C40.9518 62.5 43.75 59.7018 43.75 56.25C43.75 52.7982 40.9518 50 37.5 50C34.0482 50 31.25 52.7982 31.25 56.25C31.25 59.7018 34.0482 62.5 37.5 62.5Z" fill="white"/>
<path d="M46.1667 67.4167C43.5 66.25 40.5833 65.625 37.5 65.625C34.4167 65.625 31.5 66.25 28.8333 67.4167C26.5 68.4167 25 70.6667 25 73.2083V75H50V73.2083C50 70.6667 48.5 68.4167 46.1667 67.4167Z" fill="white"/>
</svg>
