<svg width="100" height="100" viewBox="0 0 100 100" fill="none" xmlns="http://www.w3.org/2000/svg">
<path d="M24.9998 41.666C20.4165 41.666 16.6665 45.416 16.6665 49.9993C16.6665 54.5827 20.4165 58.3327 24.9998 58.3327C29.5832 58.3327 33.3332 54.5827 33.3332 49.9993C33.3332 45.416 29.5832 41.666 24.9998 41.666ZM74.9998 41.666C70.4165 41.666 66.6665 45.416 66.6665 49.9993C66.6665 54.5827 70.4165 58.3327 74.9998 58.3327C79.5832 58.3327 83.3332 54.5827 83.3332 49.9993C83.3332 45.416 79.5832 41.666 74.9998 41.666ZM49.9998 41.666C45.4165 41.666 41.6665 45.416 41.6665 49.9993C41.6665 54.5827 45.4165 58.3327 49.9998 58.3327C54.5832 58.3327 58.3332 54.5827 58.3332 49.9993C58.3332 45.416 54.5832 41.666 49.9998 41.666Z" fill="#909090"/>
</svg>
