<svg width="100" height="100" viewBox="0 0 100 100" fill="none" xmlns="http://www.w3.org/2000/svg">
<path d="M49.9998 91.666C54.5832 91.666 58.3332 87.916 58.3332 83.3327H41.6665C41.6665 87.916 45.4165 91.666 49.9998 91.666ZM74.9998 66.666V45.8327C74.9998 33.041 68.2082 22.3327 56.2498 19.4993V16.666C56.2498 13.2077 53.4582 10.416 49.9998 10.416C46.5415 10.416 43.7498 13.2077 43.7498 16.666V19.4993C31.8332 22.3327 24.9998 32.9994 24.9998 45.8327V66.666L16.6665 74.9994V79.166H83.3332V74.9994L74.9998 66.666ZM66.6665 70.8327H33.3332V45.8327C33.3332 35.4994 39.6248 27.0827 49.9998 27.0827C60.3748 27.0827 66.6665 35.4994 66.6665 45.8327V70.8327Z" fill="white"/>
</svg>
