<svg width="100" height="100" viewBox="0 0 100 100" fill="none" xmlns="http://www.w3.org/2000/svg">
<path d="M50.0001 24.9993C54.5834 24.9993 58.3334 28.7493 58.3334 33.3327C58.3334 37.916 54.5834 41.666 50.0001 41.666C45.4167 41.666 41.6667 37.916 41.6667 33.3327C41.6667 28.7493 45.4167 24.9993 50.0001 24.9993ZM50.0001 62.4993C61.2501 62.4993 74.1667 67.8743 75.0001 70.8327V74.9993H25.0001V70.8743C25.8334 67.8743 38.7501 62.4993 50.0001 62.4993ZM50.0001 16.666C40.7917 16.666 33.3334 24.1243 33.3334 33.3327C33.3334 42.541 40.7917 49.9993 50.0001 49.9993C59.2084 49.9993 66.6667 42.541 66.6667 33.3327C66.6667 24.1243 59.2084 16.666 50.0001 16.666ZM50.0001 54.166C38.8751 54.166 16.6667 59.7493 16.6667 70.8327V83.3327H83.3334V70.8327C83.3334 59.7493 61.1251 54.166 50.0001 54.166Z" fill="#909090"/>
</svg>
