<svg width="100" height="100" viewBox="0 0 100 100" fill="none" xmlns="http://www.w3.org/2000/svg">
<path d="M62.5 87.5H54.1667V79.1667H62.5V87.5ZM54.1667 58.3333H45.8333V79.1667H54.1667V58.3333ZM87.5 50H79.1667V66.6667H87.5V50ZM79.1667 41.6667H70.8333V50H79.1667V41.6667ZM29.1667 50H20.8333V58.3333H29.1667V50ZM20.8333 41.6667H12.5V50H20.8333V41.6667ZM50 20.8333H58.3333V12.5H50V20.8333ZM18.75 18.75V31.25H31.25V18.75H18.75ZM37.5 37.5H12.5V12.5H37.5V37.5ZM18.75 68.75V81.25H31.25V68.75H18.75ZM37.5 87.5H12.5V62.5H37.5V87.5ZM68.75 18.75V31.25H81.25V18.75H68.75ZM87.5 37.5H62.5V12.5H87.5V37.5ZM79.1667 79.1667V66.6667H62.5V75H70.8333V87.5H87.5V79.1667H79.1667ZM70.8333 50H54.1667V58.3333H70.8333V50ZM54.1667 41.6667H29.1667V50H37.5V58.3333H45.8333V50H54.1667V41.6667ZM58.3333 37.5V29.1667H50V20.8333H41.6667V37.5H58.3333ZM28.125 21.875H21.875V28.125H28.125V21.875ZM28.125 71.875H21.875V78.125H28.125V71.875ZM78.125 21.875H71.875V28.125H78.125V21.875Z" fill="white"/>
</svg>
