<svg width="100" height="100" viewBox="0 0 100 100" fill="none" xmlns="http://www.w3.org/2000/svg">
<path d="M12.5 45.8333H45.8333V12.5H12.5V45.8333ZM20.8333 20.8333H37.5V37.5H20.8333V20.8333Z" fill="white"/>
<path d="M12.5 87.4993H45.8333V54.166H12.5V87.4993ZM20.8333 62.4993H37.5V79.166H20.8333V62.4993Z" fill="white"/>
<path d="M54.1665 12.5V45.8333H87.4998V12.5H54.1665ZM79.1665 37.5H62.4998V20.8333H79.1665V37.5Z" fill="white"/>
<path d="M87.4998 79.166H79.1665V87.4993H87.4998V79.166Z" fill="white"/>
<path d="M62.4998 54.166H54.1665V62.4993H62.4998V54.166Z" fill="white"/>
<path d="M70.8333 62.5H62.5V70.8333H70.8333V62.5Z" fill="white"/>
<path d="M62.4998 70.834H54.1665V79.1673H62.4998V70.834Z" fill="white"/>
<path d="M70.8333 79.166H62.5V87.4993H70.8333V79.166Z" fill="white"/>
<path d="M79.1668 70.834H70.8335V79.1673H79.1668V70.834Z" fill="white"/>
<path d="M79.1668 54.166H70.8335V62.4993H79.1668V54.166Z" fill="white"/>
<path d="M87.4998 62.5H79.1665V70.8333H87.4998V62.5Z" fill="white"/>
</svg>
