<svg width="100" height="100" viewBox="0 0 100 100" fill="none" xmlns="http://www.w3.org/2000/svg">
<mask id="mask0" style="mask-type:alpha" maskUnits="userSpaceOnUse" x="8" y="8" width="84" height="84">
<path fill-rule="evenodd" clip-rule="evenodd" d="M8.3335 50.0007C8.3335 27.0007 27.0002 8.33398 50.0002 8.33398C73.0002 8.33398 91.6668 27.0007 91.6668 50.0007C91.6668 73.0007 73.0002 91.6673 50.0002 91.6673C27.0002 91.6673 8.3335 73.0007 8.3335 50.0007ZM16.6668 50.0006C16.6668 68.4173 31.5835 83.334 50.0002 83.334C68.4168 83.334 83.3335 68.4173 83.3335 50.0006C83.3335 31.584 68.4168 16.6673 50.0002 16.6673C31.5835 16.6673 16.6668 31.584 16.6668 50.0006Z" fill="white"/>
</mask>
<g mask="url(#mask0)">
<rect width="100" height="100" fill="white"/>
</g>
</svg>
