<svg width="100" height="100" viewBox="0 0 100 100" fill="none" xmlns="http://www.w3.org/2000/svg">
<mask id="mask0" style="mask-type:alpha" maskUnits="userSpaceOnUse" x="8" y="8" width="84" height="84">
<path fill-rule="evenodd" clip-rule="evenodd" d="M50.0002 8.33398C27.0002 8.33398 8.3335 27.0007 8.3335 50.0007C8.3335 73.0007 27.0002 91.6673 50.0002 91.6673C73.0002 91.6673 91.6668 73.0007 91.6668 50.0007C91.6668 27.0007 73.0002 8.33398 50.0002 8.33398ZM50.0002 83.334C31.5835 83.334 16.6668 68.4173 16.6668 50.0006C16.6668 31.584 31.5835 16.6673 50.0002 16.6673C68.4168 16.6673 83.3335 31.584 83.3335 50.0006C83.3335 68.4173 68.4168 83.334 50.0002 83.334ZM70.8335 50.0006C70.8335 61.5066 61.5061 70.834 50.0002 70.834C38.4942 70.834 29.1668 61.5066 29.1668 50.0006C29.1668 38.4947 38.4942 29.1673 50.0002 29.1673C61.5061 29.1673 70.8335 38.4947 70.8335 50.0006Z" fill="white"/>
</mask>
<g mask="url(#mask0)">
<rect width="100" height="100" fill="white"/>
</g>
</svg>
