<svg width="100" height="100" viewBox="0 0 100 100" fill="none" xmlns="http://www.w3.org/2000/svg">
<path d="M80.9567 54.0859C81.1234 52.7526 81.2484 51.4193 81.2484 50.0026C81.2484 48.5859 81.1234 47.2526 80.9567 45.9193L89.7484 39.0443C90.54 38.4193 90.7484 37.2943 90.2484 36.3776L81.915 21.9609C81.54 21.2943 80.8317 20.9193 80.0817 20.9193C79.8317 20.9193 79.5817 20.9609 79.3734 21.0443L68.9984 25.2109C66.8317 23.5443 64.4984 22.1693 61.9567 21.1276L60.3734 10.0859C60.2484 9.08594 59.3734 8.33594 58.3317 8.33594H41.665C40.6234 8.33594 39.7484 9.08594 39.6234 10.0859L38.04 21.1276C35.4984 22.1693 33.165 23.5859 30.9984 25.2109L20.6234 21.0443C20.3734 20.9609 20.1234 20.9193 19.8734 20.9193C19.165 20.9193 18.4567 21.2943 18.0817 21.9609L9.74835 36.3776C9.20669 37.2943 9.45669 38.4193 10.2484 39.0443L19.04 45.9193C18.8734 47.2526 18.7484 48.6276 18.7484 50.0026C18.7484 51.3776 18.8734 52.7526 19.04 54.0859L10.2484 60.9609C9.45669 61.5859 9.24835 62.7109 9.74835 63.6276L18.0817 78.0443C18.4567 78.7109 19.165 79.0859 19.915 79.0859C20.165 79.0859 20.415 79.0443 20.6234 78.9609L30.9984 74.7943C33.165 76.4609 35.4984 77.8359 38.04 78.8776L39.6234 89.9193C39.7484 90.9193 40.6234 91.6693 41.665 91.6693H58.3317C59.3734 91.6693 60.2484 90.9193 60.3734 89.9193L61.9567 78.8776C64.4984 77.8359 66.8317 76.4193 68.9984 74.7943L79.3734 78.9609C79.6234 79.0443 79.8734 79.0859 80.1234 79.0859C80.8317 79.0859 81.54 78.7109 81.915 78.0443L90.2484 63.6276C90.7484 62.7109 90.54 61.5859 89.7484 60.9609L80.9567 54.0859ZM72.7067 46.9609C72.8734 48.2526 72.915 49.1276 72.915 50.0026C72.915 50.8776 72.8317 51.7943 72.7067 53.0443L72.1234 57.7526L75.8317 60.6693L80.3317 64.1693L77.415 69.2109L72.1234 67.0859L67.79 65.3359L64.04 68.1693C62.2484 69.5026 60.54 70.5026 58.8317 71.2109L54.415 73.0026L53.7484 77.7109L52.915 83.3359H47.0817L46.29 77.7109L45.6234 73.0026L41.2067 71.2109C39.415 70.4609 37.7484 69.5026 36.0817 68.2526L32.29 65.3359L27.8734 67.1276L22.5817 69.2526L19.665 64.2109L24.165 60.7109L27.8734 57.7943L27.29 53.0859C27.165 51.7943 27.0817 50.8359 27.0817 50.0026C27.0817 49.1693 27.165 48.2109 27.29 46.9609L27.8734 42.2526L24.165 39.3359L19.665 35.8359L22.5817 30.7943L27.8734 32.9193L32.2067 34.6693L35.9567 31.8359C37.7484 30.5026 39.4567 29.5026 41.165 28.7943L45.5817 27.0026L46.2484 22.2943L47.0817 16.6693H52.8734L53.665 22.2943L54.3317 27.0026L58.7484 28.7943C60.54 29.5443 62.2067 30.5026 63.8734 31.7526L67.665 34.6693L72.0817 32.8776L77.3734 30.7526L80.29 35.7943L75.8317 39.3359L72.1234 42.2526L72.7067 46.9609ZM49.9984 33.3359C40.79 33.3359 33.3317 40.7943 33.3317 50.0026C33.3317 59.2109 40.79 66.6693 49.9984 66.6693C59.2067 66.6693 66.665 59.2109 66.665 50.0026C66.665 40.7943 59.2067 33.3359 49.9984 33.3359ZM49.9984 58.3359C45.415 58.3359 41.665 54.5859 41.665 50.0026C41.665 45.4193 45.415 41.6693 49.9984 41.6693C54.5817 41.6693 58.3317 45.4193 58.3317 50.0026C58.3317 54.5859 54.5817 58.3359 49.9984 58.3359Z" fill="white"/>
</svg>
