<svg width="32" height="32" viewBox="0 0 32 32" fill="none" xmlns="http://www.w3.org/2000/svg">
<path d="M25 8.43878V10.2755C25 11.8941 20.9688 13.2143 16 13.2143C11.0312 13.2143 7 11.8941 7 10.2755V8.43878C7 6.82015 11.0312 5.5 16 5.5C20.9688 5.5 25 6.82015 25 8.43878ZM25 12.5714V16.7041C25 18.3227 20.9688 19.6429 16 19.6429C11.0312 19.6429 7 18.3227 7 16.7041V12.5714C8.93359 13.9031 12.4726 14.523 16 14.523C19.5274 14.523 23.0664 13.9031 25 12.5714ZM25 19V23.1326C25 24.7513 20.9688 26.0714 16 26.0714C11.0312 26.0714 7 24.7513 7 23.1326V19C8.93359 20.3316 12.4726 20.9516 16 20.9516C19.5274 20.9516 23.0664 20.3316 25 19Z" fill="white"/>
</svg>
