<svg width="32" height="32" viewBox="0 0 32 32" fill="none" xmlns="http://www.w3.org/2000/svg">
<path d="M24.0667 17.5932L25.7287 10.2807C25.8486 9.75277 25.4473 9.25 24.9059 9.25H11.0972L10.7749 7.67465C10.6946 7.28199 10.3491 7 9.94829 7H6.34375C5.87775 7 5.5 7.37775 5.5 7.84375V8.40625C5.5 8.87225 5.87775 9.25 6.34375 9.25H8.80057L11.2702 21.3239C10.6794 21.6637 10.2812 22.3008 10.2812 23.0312C10.2812 24.1186 11.1627 25 12.25 25C13.3373 25 14.2188 24.1186 14.2188 23.0312C14.2188 22.4802 13.9921 21.9824 13.6273 21.625H20.9977C20.6329 21.9824 20.4062 22.4802 20.4062 23.0312C20.4062 24.1186 21.2877 25 22.375 25C23.4623 25 24.3438 24.1186 24.3438 23.0312C24.3438 22.2518 23.8907 21.5782 23.2336 21.2592L23.4275 20.4057C23.5475 19.8778 23.1462 19.375 22.6047 19.375H13.1682L12.9381 18.25H23.244C23.6379 18.25 23.9794 17.9774 24.0667 17.5932Z" fill="white"/>
</svg>
