<svg width="32" height="32" viewBox="0 0 32 32" fill="none" xmlns="http://www.w3.org/2000/svg">
<path fill-rule="evenodd" clip-rule="evenodd" d="M16.3695 3.43179C15.1673 2.74087 13.0388 2.85603 12.5888 3.91682C12.5888 5.49755 13.5874 6.79563 14.5005 7.65404C14.524 7.65257 14.5475 7.64925 14.5712 7.6459C14.6039 7.64128 14.6371 7.63659 14.6713 7.63659H17.3188C17.3636 7.63659 17.4066 7.64261 17.449 7.64856C17.4626 7.65046 17.4761 7.65235 17.4896 7.65404C18.4094 6.79563 19.4079 5.49755 19.4079 3.91682C18.7346 4.09479 17.6999 4.19598 16.3695 3.43179ZM17.3221 8.62411C17.7097 8.62411 18.0218 8.95561 18.0218 9.36388C18.0218 9.77563 17.7097 10.1071 17.3221 10.1071H14.6746C14.287 10.1071 13.975 9.77215 13.975 9.36388C13.975 8.95561 14.287 8.62411 14.6746 8.62411H17.3221ZM16.0016 28.9991C20.4196 28.9991 24 26.1447 24 21.4514C24 16.5417 19.8908 12.7975 17.5652 11.0702C17.5498 11.0723 17.5345 11.0744 17.5191 11.0766C17.4555 11.0856 17.3915 11.0947 17.3254 11.0947H14.6779C14.5958 11.0947 14.5169 11.0842 14.4381 11.0702C12.1092 12.7975 8 16.5417 8 21.4514C8 26.1447 11.5837 28.9991 16.0016 28.9991ZM18.6055 24.8887L19.5177 20.9277H20.8518C20.8898 20.9277 20.924 20.9165 20.9544 20.8943C20.9848 20.8646 21 20.8312 21 20.7942V20.0264C21 19.9374 20.9506 19.8929 20.8518 19.8929H19.7457L20.3843 17.1558C20.3995 17.1038 20.3995 17.0668 20.3843 17.0445C20.3691 17.0148 20.312 17 20.2132 17H19.358C19.3048 17 19.2668 17.0074 19.244 17.0223C19.2212 17.0297 19.2022 17.0593 19.187 17.1113L18.5599 19.8929H17.2942L16.6442 17.1113C16.629 17.0593 16.61 17.0297 16.5872 17.0223C16.572 17.0074 16.5378 17 16.4846 17H15.5268C15.4736 17 15.4356 17.0074 15.4128 17.0223C15.3976 17.0297 15.3824 17.0593 15.3672 17.1113L14.7172 19.8929H13.4515L12.8244 17.1113C12.8092 17.0593 12.7902 17.0297 12.7674 17.0223C12.7446 17.0074 12.7066 17 12.6534 17H11.7982C11.6994 17 11.6423 17.0148 11.6271 17.0445C11.6119 17.0668 11.6119 17.1038 11.6271 17.1558L12.2657 19.8929H11.1482C11.1102 19.8929 11.076 19.9077 11.0456 19.9374C11.0152 19.9597 11 19.9893 11 20.0264V20.7942C11 20.8312 11.0152 20.8646 11.0456 20.8943C11.076 20.9165 11.1102 20.9277 11.1482 20.9277H12.4937L13.4059 24.8887C13.4211 24.9407 13.4363 24.9703 13.4515 24.9777C13.4667 24.9926 13.5086 25 13.577 25H14.4778C14.5614 25 14.607 24.9926 14.6146 24.9777C14.6298 24.9703 14.645 24.9407 14.6602 24.8887L15.5838 20.9277H16.4276L17.3512 24.8887C17.3664 24.9407 17.3778 24.9703 17.3854 24.9777C17.4006 24.9926 17.45 25 17.5336 25H18.4344C18.5029 25 18.5447 24.9926 18.5599 24.9777C18.5751 24.9703 18.5903 24.9407 18.6055 24.8887ZM16.1767 19.8929H15.8347L16.0057 19.1363L16.1767 19.8929ZM18.3318 20.9277L17.9441 22.6523L17.545 20.9277H18.3318ZM14.4664 20.9277L14.0673 22.6523L13.6796 20.9277H14.4664Z" fill="white"/>
</svg>
