<svg width="32" height="32" viewBox="0 0 32 32" fill="none" xmlns="http://www.w3.org/2000/svg">
<path d="M24.659 13.7078C24.7961 13.5988 25 13.7008 25 13.873V21.0625C25 21.9941 24.2441 22.75 23.3125 22.75H8.6875C7.75586 22.75 7 21.9941 7 21.0625V13.8766C7 13.7008 7.20039 13.6023 7.34102 13.7113C8.12852 14.323 9.17266 15.1 12.7586 17.7051C13.5004 18.2465 14.752 19.3855 16 19.3785C17.2551 19.3891 18.5312 18.2254 19.2449 17.7051C22.8309 15.1 23.8715 14.3195 24.659 13.7078ZM16 18.25C16.8156 18.2641 17.9898 17.2234 18.5805 16.7945C23.2457 13.409 23.6008 13.1137 24.6766 12.2699C24.8805 12.1117 25 11.8656 25 11.6055V10.9375C25 10.0059 24.2441 9.25 23.3125 9.25H8.6875C7.75586 9.25 7 10.0059 7 10.9375V11.6055C7 11.8656 7.11953 12.1082 7.32344 12.2699C8.39922 13.1102 8.7543 13.409 13.4195 16.7945C14.0102 17.2234 15.1844 18.2641 16 18.25Z" fill="white"/>
</svg>
