<svg width="32" height="32" viewBox="0 0 32 32" fill="none" xmlns="http://www.w3.org/2000/svg">
<path d="M26 11.375V22.625C26 23.6602 25.1602 24.5 24.125 24.5H7.875C6.83984 24.5 6 23.6602 6 22.625V11.375C6 10.3398 6.83984 9.5 7.875 9.5H11.3125L11.793 8.21484C12.0664 7.48437 12.7656 7 13.5469 7H18.4492C19.2305 7 19.9297 7.48437 20.2031 8.21484L20.6875 9.5H24.125C25.1602 9.5 26 10.3398 26 11.375ZM20.6875 17C20.6875 14.4141 18.5859 12.3125 16 12.3125C13.4141 12.3125 11.3125 14.4141 11.3125 17C11.3125 19.5859 13.4141 21.6875 16 21.6875C18.5859 21.6875 20.6875 19.5859 20.6875 17ZM19.4375 17C19.4375 18.8945 17.8945 20.4375 16 20.4375C14.1055 20.4375 12.5625 18.8945 12.5625 17C12.5625 15.1055 14.1055 13.5625 16 13.5625C17.8945 13.5625 19.4375 15.1055 19.4375 17Z" fill="white"/>
</svg>
