<svg width="100" height="100" viewBox="0 0 100 100" fill="none" xmlns="http://www.w3.org/2000/svg">
<path d="M91.6667 79.1673H66.6667V62.5007H55.5C50.75 72.584 40.5 79.1673 29.1667 79.1673C13.0833 79.1673 0 66.084 0 50.0007C0 33.9173 13.0833 20.834 29.1667 20.834C40.5 20.834 50.7083 27.4173 55.5 37.5007H100V62.5007H91.6667V79.1673ZM75 70.834H83.3333V54.1673H91.6667V45.834H49.75L48.7917 43.0423C45.875 34.7507 37.9583 29.1673 29.1667 29.1673C17.6667 29.1673 8.33333 38.5007 8.33333 50.0007C8.33333 61.5007 17.6667 70.834 29.1667 70.834C37.9583 70.834 45.875 65.2507 48.7917 56.959L49.75 54.1673H75V70.834ZM29.1667 62.5007C22.2917 62.5007 16.6667 56.8757 16.6667 50.0007C16.6667 43.1257 22.2917 37.5007 29.1667 37.5007C36.0417 37.5007 41.6667 43.1257 41.6667 50.0007C41.6667 56.8757 36.0417 62.5007 29.1667 62.5007ZM29.1667 45.834C26.875 45.834 25 47.709 25 50.0007C25 52.2923 26.875 54.1673 29.1667 54.1673C31.4583 54.1673 33.3333 52.2923 33.3333 50.0007C33.3333 47.709 31.4583 45.834 29.1667 45.834Z" fill="white"/>
</svg>
