<svg width="32" height="32" viewBox="0 0 32 32" fill="none" xmlns="http://www.w3.org/2000/svg">
<path d="M22.5 6.12804L21 7.93273L18.875 6.12804C18.7671 6.04374 18.6354 5.99812 18.5 5.99812C18.3646 5.99812 18.2329 6.04374 18.125 6.12804L16 7.93273L13.875 6.12804C13.7671 6.04374 13.6354 5.99812 13.5 5.99812C13.3646 5.99812 13.2329 6.04374 13.125 6.12804L11 7.93273L9.5 6.12804C9.08594 5.8098 8.5 6.11192 8.5 6.64366V25.9796C8.5 26.5113 9.08594 26.8135 9.5 26.4952L11 24.6905L13.125 26.4952C13.2329 26.5795 13.3646 26.6251 13.5 26.6251C13.6354 26.6251 13.7671 26.5795 13.875 26.4952L16 24.6905L18.125 26.4952C18.2329 26.5795 18.3646 26.6251 18.5 26.6251C18.6354 26.6251 18.7671 26.5795 18.875 26.4952L21 24.6905L22.5 26.4952C22.9102 26.8135 23.5 26.5113 23.5 25.9796V6.64366C23.5 6.11192 22.9141 5.8098 22.5 6.12804ZM21 20.5011C21 20.6783 20.8594 20.8234 20.6875 20.8234H11.3125C11.1406 20.8234 11 20.6783 11 20.5011V19.8566C11 19.6793 11.1406 19.5343 11.3125 19.5343H20.6875C20.8594 19.5343 21 19.6793 21 19.8566V20.5011ZM21 16.6339C21 16.8111 20.8594 16.9562 20.6875 16.9562H11.3125C11.1406 16.9562 11 16.8111 11 16.6339V15.9894C11 15.8121 11.1406 15.6671 11.3125 15.6671H20.6875C20.8594 15.6671 21 15.8121 21 15.9894V16.6339ZM21 12.7667C21 12.944 20.8594 13.089 20.6875 13.089H11.3125C11.1406 13.089 11 12.944 11 12.7667V12.1222C11 11.9449 11.1406 11.7999 11.3125 11.7999H20.6875C20.8594 11.7999 21 11.9449 21 12.1222V12.7667Z" fill="white"/>
</svg>
