<svg width="32" height="32" viewBox="0 0 32 32" fill="none" xmlns="http://www.w3.org/2000/svg">
<path fill-rule="evenodd" clip-rule="evenodd" d="M16.4619 18.6207C17.6408 17.4043 19.5509 17.2074 20.8352 18.3019C22.3071 19.5582 22.3844 21.8128 21.0649 23.1745L16.5298 27.8572C16.2369 28.1596 15.7611 28.1596 15.4682 27.8572L10.9331 23.1745C9.61592 21.8128 9.69326 19.5582 11.1651 18.3019C12.4495 17.2074 14.3619 17.4043 15.5385 18.6207L16.0002 19.0965L16.4619 18.6207ZM13.8125 23.5264H15.0625V24.7764C15.0625 24.8592 15.0954 24.9387 15.154 24.9973C15.2126 25.0559 15.2921 25.0889 15.375 25.0889H16.625C16.7079 25.0889 16.7874 25.0559 16.846 24.9973C16.9046 24.9387 16.9375 24.8592 16.9375 24.7764V23.5264H18.1875C18.2704 23.5264 18.3499 23.4934 18.4085 23.4348C18.4671 23.3762 18.5 23.2967 18.5 23.2139V21.9639C18.5 21.881 18.4671 21.8015 18.4085 21.7429C18.3499 21.6843 18.2704 21.6514 18.1875 21.6514H16.9375V20.4014C16.9375 20.3185 16.9046 20.239 16.846 20.1804C16.7874 20.1218 16.7079 20.0889 16.625 20.0889H15.375C15.2921 20.0889 15.2126 20.1218 15.154 20.1804C15.0954 20.239 15.0625 20.3185 15.0625 20.4014V21.6514H13.8125C13.7296 21.6514 13.6501 21.6843 13.5915 21.7429C13.5329 21.8015 13.5 21.881 13.5 21.9639V23.2139C13.5 23.2967 13.5329 23.3762 13.5915 23.4348C13.6501 23.4934 13.7296 23.5264 13.8125 23.5264Z" fill="white"/>
<path fill-rule="evenodd" clip-rule="evenodd" d="M25.371 13.271C24.4394 8.7225 20.863 5.98942 17.0423 5.56561V4.96826C17.0423 4.3776 16.5765 3.90039 15.9999 3.90039C15.4234 3.90039 14.9576 4.3776 14.9576 4.96826V5.56561C11.1239 5.98942 7.58001 8.7225 6.6289 13.271C6.55724 13.608 6.90577 13.9818 7.238 13.6514C8.93176 11.816 10.746 11.9028 12.404 14.8861C12.5766 15.2032 12.8893 15.1731 13.0456 14.8861C13.7036 13.7048 14.5081 12.4434 15.9999 12.4434C17.7737 12.4434 18.7346 14.4328 18.9246 14.8263C18.9388 14.8556 18.9486 14.876 18.9542 14.8861C19.1106 15.1731 19.4233 15.2032 19.5959 14.8861C21.2571 11.8994 23.0844 11.836 24.7619 13.6514C25.0974 13.9851 25.4426 13.608 25.371 13.271ZM14.9576 18.1353V19.6462H17.0423V18.136C16.9269 18.212 16.8152 18.2956 16.7081 18.3865C16.623 18.4587 16.5408 18.5356 16.4619 18.6171L16.0001 19.0928L15.5384 18.6171C15.4596 18.5355 15.3774 18.4586 15.2923 18.3863C15.1851 18.2951 15.0733 18.2114 14.9576 18.1353ZM17.0423 16.9943V13.9651C16.7458 13.7015 16.3973 13.5112 15.9999 13.5112C15.5993 13.5146 15.2703 13.6714 14.9576 13.9684V16.9937C15.3315 17.1692 15.6836 17.3983 16.0003 17.6768C16.317 17.3986 16.6688 17.1697 17.0423 16.9943Z" fill="white"/>
</svg>
