<svg width="70" height="70" viewBox="0 0 70 70" fill="none" xmlns="http://www.w3.org/2000/svg">
<path opacity="0.85" fill-rule="evenodd" clip-rule="evenodd" d="M26.2503 0H0.000285348V26.25H26.2503V0ZM21.8753 4.37501H4.37529V21.875H21.8753V4.37501ZM8.7503 8.75002H17.5003V17.5H8.7503V8.75002ZM26.25 43.7501H0V70.0001H26.25V43.7501ZM21.875 48.1252H4.37501V65.6252H21.875V48.1252ZM8.75002 52.5002H17.5V61.2502H8.75002V52.5002ZM43.7501 0H70.0001V26.25H43.7501V0ZM48.1252 4.37501H65.6252V21.875H48.1252V4.37501ZM61.2502 8.75002H52.5002V17.5H61.2502V8.75002ZM8.75002 35.0001V30.6251H2.00272e-05L1.98359e-05 35.0001H8.75002ZM39.3751 39.3751V35.0001H48.1251V39.3751H39.3751ZM39.3751 39.3751H30.6251V48.1251H39.3751V39.3751ZM35.0001 4.37501L39.3751 4.37501V13.125H35.0001V4.37501ZM39.3751 17.5H35.0001V26.25H39.3751V17.5ZM48.1251 43.7501V39.3751H56.8751V43.7501H48.1251ZM65.6252 61.2501L65.6251 56.8751H61.2501V70.0001L65.6252 70.0001H70.0002V61.2501H65.6252ZM61.2501 35.0001V39.3751H70.0001V35.0001H61.2501ZM65.6251 52.5001V48.1251H70.0001V52.5001H65.6251ZM13.125 39.3751V35.0001H3.05176e-05L3.03263e-05 39.3751H13.125ZM35.0001 35.0001V30.6251H48.1251V35.0001H35.0001ZM30.6251 0H35.0001V17.5H30.6251L30.6251 0ZM43.7501 43.7501V48.1251H56.8751L56.8751 43.7501H43.7501ZM52.5001 35.0001V30.6251H70.0001V35.0001H52.5001ZM61.2501 43.7501V48.1251H70.0001V43.7501H61.2501ZM30.6251 35.0001V39.3751H21.8751L21.8751 35.0001H30.6251ZM39.3751 52.5001H35.0001V61.2501H39.3751V52.5001ZM21.875 30.6251V35.0001H13.125V30.6251H21.875ZM30.6251 35.0001V30.6251H26.2501L26.2501 35.0001H30.6251ZM30.6251 52.5001H35.0001V56.8751H30.6251V52.5001ZM35.0001 30.6251V26.2501H30.6251L30.6251 30.6251H35.0001ZM43.7501 48.1251V52.5001H39.3751V48.1251H43.7501ZM52.5001 56.8751V61.2501H48.1251V56.8751H52.5001ZM56.8751 70.0001V61.2501H52.5001V70.0001H56.8751ZM35.0001 61.2501V70.0001H30.6251L30.6251 61.2501H35.0001ZM48.1251 70.0001V61.2501H39.3751L39.3751 70.0001H48.1251ZM61.2501 56.8751H52.5001V52.5001H61.2501V56.8751Z" fill="#383838"/>
</svg>
