<svg width="70" height="47" viewBox="0 0 70 47" fill="none" xmlns="http://www.w3.org/2000/svg">
<path d="M0.97246 16.29C0.850895 16.4116 0.850895 16.4116 0.97246 16.5331L11.5486 23.4623L14.5877 9.23926L0.97246 16.29Z" fill="#E72511"/>
<path d="M63.3352 9.23926H60.6607C60.5392 9.23926 60.296 9.23926 60.1745 9.36082L46.8023 16.29C46.6808 16.29 46.6808 16.4116 46.8023 16.5331L57.1354 23.3408C57.2569 23.4623 57.5 23.4623 57.6216 23.4623H60.296C60.4176 23.4623 60.4176 23.4623 60.296 23.3408L49.7199 16.4116L63.3352 9.23926C63.4567 9.36082 63.4567 9.23926 63.3352 9.23926Z" fill="#F08300"/>
<path d="M57.6217 9.23926H39.0223L35.9831 23.4623H54.5826C54.7041 23.4623 54.7041 23.4623 54.5826 23.3408L44.0064 16.4116L57.6217 9.23926C57.7432 9.36082 57.7432 9.23926 57.6217 9.23926Z" fill="#E72511"/>
<path d="M69.0488 9.23926H66.3744C66.2528 9.23926 66.0097 9.23926 65.8881 9.36082L52.516 16.29C52.3944 16.29 52.3944 16.4116 52.516 16.5331L62.849 23.3408C62.9706 23.4623 63.2137 23.4623 63.3352 23.4623H66.0097C66.1312 23.4623 66.1312 23.4623 66.0097 23.3408L55.4335 16.4116L69.0488 9.23926C69.1704 9.36082 69.1704 9.23926 69.0488 9.23926Z" fill="#FABE00"/>
<path d="M56.7708 0H13.129C10.6977 0 8.99578 1.58034 8.63109 3.40382C8.38796 4.4979 8.75265 5.34885 9.6036 6.07824L25.2855 16.4113L56.7708 0C56.8923 0 56.8923 0 56.7708 0Z" fill="#E72511"/>
<path d="M49.8415 32.7008L25.2854 16.4111L5.1056 26.7441C4.01152 27.352 3.28213 28.3245 3.039 29.297C2.67431 31.242 3.76839 32.8224 6.19969 32.8224H49.8415C49.963 32.8224 49.963 32.7008 49.8415 32.7008Z" fill="#E72511"/>
<path d="M49.9632 40.2381C49.7201 39.8734 49.3554 39.6303 48.9907 39.5088C48.626 39.3872 48.1397 39.2656 47.5319 39.2656C46.4378 39.2656 45.4653 39.6303 44.6144 40.2381C43.885 40.9675 43.2771 41.8185 43.034 43.0341C42.7909 44.1282 42.9124 45.1007 43.3987 45.8301C43.885 46.5595 44.6144 46.9242 45.83 46.9242C46.4378 46.9242 46.9241 46.8026 47.4103 46.6811C47.8966 46.438 48.3829 46.1948 48.7476 45.9517C49.1122 45.587 49.4769 45.2223 49.7201 44.736C49.9632 44.2498 50.2063 43.7635 50.3279 43.1557C50.4495 42.6694 50.4495 42.0616 50.4495 41.6969C50.3279 40.9675 50.2063 40.6028 49.9632 40.2381ZM48.3829 44.0067C48.2613 44.3714 48.0182 44.6145 47.8966 44.8576C47.6535 45.1007 47.4103 45.3439 47.1672 45.4654C46.9241 45.587 46.5594 45.7086 46.1947 45.7086C45.83 45.7086 45.5869 45.587 45.3437 45.4654C45.1006 45.3439 44.979 45.1007 44.8575 44.8576C44.7359 44.6145 44.7359 44.3714 44.7359 44.0067C44.7359 43.642 44.7359 43.3988 44.8575 43.0341C44.979 42.6694 44.979 42.4263 45.2222 42.0616C45.3437 41.8185 45.5869 41.4538 45.83 41.2107C46.0731 40.9675 46.3163 40.7244 46.5594 40.6028C46.8025 40.4813 47.1672 40.3597 47.5319 40.3597C47.8966 40.3597 48.1397 40.4813 48.3829 40.6028C48.626 40.7244 48.7476 40.9675 48.8691 41.2107C48.9907 41.4538 48.9907 41.6969 49.1123 42.0616C49.1123 42.4263 49.1122 42.6694 48.9907 43.0341C48.626 43.3988 48.626 43.642 48.3829 44.0067Z" fill="#E72511"/>
<path d="M13.8584 40.2381C13.6152 39.8734 13.3721 39.6303 12.8858 39.5088C12.5212 39.3872 12.0349 39.2656 11.4271 39.2656C10.333 39.2656 9.36046 39.6303 8.50951 40.2381C7.78012 40.9675 7.1723 41.8185 6.92917 43.0341C6.68604 44.1282 6.8076 45.1007 7.29386 45.8301C7.78012 46.5595 8.63107 46.9242 9.72516 46.9242C10.333 46.9242 10.8192 46.8026 11.3055 46.6811C11.7918 46.438 12.278 46.1948 12.6427 45.9517C13.0074 45.587 13.3721 45.2223 13.6152 44.736C13.8584 44.2498 14.1015 43.7635 14.2231 43.1557C14.3446 42.6694 14.3446 42.0616 14.3446 41.6969C14.2231 40.9675 14.1015 40.6028 13.8584 40.2381ZM12.278 44.0067C12.1565 44.3714 11.9133 44.6145 11.7918 44.8576C11.5486 45.1007 11.3055 45.3439 11.0624 45.4654C10.8192 45.587 10.4545 45.7086 10.0899 45.7086C9.72516 45.7086 9.48203 45.587 9.2389 45.4654C8.99577 45.3439 8.8742 45.1007 8.75264 44.8576C8.50951 44.6145 8.50951 44.2498 8.50951 44.0067C8.50951 43.642 8.50951 43.3988 8.63107 43.0341C8.75264 42.6694 8.75264 42.4263 8.99577 42.0616C9.11733 41.8185 9.36046 41.4538 9.60359 41.2107C9.84672 40.9675 10.0899 40.7244 10.333 40.6028C10.5761 40.4813 10.9408 40.3597 11.3055 40.3597C11.6702 40.3597 11.9133 40.4813 12.1565 40.6028C12.3996 40.7244 12.5211 40.9675 12.6427 41.2107C12.7643 41.4538 12.7643 41.6969 12.8858 42.0616C12.8858 42.4263 12.8858 42.6694 12.7643 43.0341C12.6427 43.3988 12.5212 43.642 12.278 44.0067Z" fill="#383838"/>
<path d="M56.0415 39.5088C56.0415 39.5088 55.4336 39.3872 55.3121 39.3872C54.9474 39.2656 54.5827 39.2656 54.3396 39.2656C53.9749 39.2656 53.6102 39.2656 53.367 39.3872C53.0023 39.5088 52.7592 39.6303 52.3945 39.7519C52.1514 39.995 51.9083 40.1166 51.6651 40.4813C51.422 40.7244 51.3004 41.0891 51.1789 41.4538C51.0573 41.8185 51.0573 42.0616 51.1789 42.3047C51.1789 42.5479 51.3004 42.791 51.5436 42.9126C51.6651 43.0341 51.9083 43.1557 52.0298 43.2773C52.1514 43.3988 52.3945 43.5204 52.7592 43.642C53.1239 43.7635 53.4886 44.0067 53.6102 44.1282C53.7317 44.2498 53.8533 44.4929 53.7317 44.736C53.6102 45.1007 53.4886 45.2223 53.1239 45.4654C52.5161 45.8301 51.7867 45.7086 51.1789 45.587C50.9357 45.4654 50.8142 45.4654 50.6926 45.3439C50.6926 45.3439 50.6926 45.3439 50.571 45.3439C50.571 45.3439 50.2063 46.438 50.2063 46.5595V46.6811C50.2063 46.6811 50.4495 46.6811 50.571 46.8026C51.0573 46.9242 51.5436 46.9242 52.0298 46.9242C52.3945 46.9242 52.7592 46.9242 53.1239 46.8026C53.4886 46.6811 53.8533 46.5595 54.0964 46.438C54.3396 46.3164 54.7042 46.0733 54.8258 45.7086C55.0689 45.4654 55.1905 45.1007 55.3121 44.736C55.4336 44.3713 55.4336 44.1282 55.3121 43.8851C55.3121 43.642 55.1905 43.3988 54.9474 43.2773C54.8258 43.1557 54.5827 43.0341 54.4611 42.9126C54.3395 42.791 54.0964 42.6694 53.7317 42.5479C53.367 42.4263 53.0023 42.1832 52.8808 42.0616C52.7592 41.9401 52.6376 41.6969 52.7592 41.4538C52.7592 41.2107 52.8808 41.0891 53.0023 40.9675C53.1239 40.846 53.2455 40.7244 53.367 40.6028C53.4886 40.4813 53.6102 40.4813 53.7317 40.4813C54.0964 40.3597 54.5827 40.4813 55.0689 40.6028L55.5552 40.7244H55.6768L56.0415 39.5088Z" fill="#E72511"/>
<path d="M42.6692 40.4813C42.5476 40.2381 42.4261 39.995 42.1829 39.7519C41.9398 39.6303 41.5751 39.5088 41.332 39.3872C40.9673 39.2656 40.6026 39.2656 40.2379 39.2656H38.4144H38.2929L36.7125 46.438V46.5595H38.0497C38.0497 46.5595 38.1713 46.5595 38.1713 46.438L38.7791 43.8851C39.7516 43.8851 40.6026 43.7635 40.9673 43.5204C41.2104 43.3988 41.332 43.3988 41.5751 43.2773C41.8182 43.1557 42.0614 42.9126 42.3045 42.5479C42.5476 42.1832 42.6692 41.9401 42.7908 41.4538C42.7908 41.2107 42.7908 40.846 42.6692 40.4813ZM41.0889 41.6969C40.9673 42.0616 40.8457 42.4263 40.481 42.5479C40.3595 42.6694 39.8732 42.791 38.9007 42.791L39.387 40.4813H39.8732C40.2379 40.4813 40.6026 40.6028 40.8457 40.7244C41.0889 40.9675 41.2104 41.2107 41.0889 41.6969Z" fill="#E72511"/>
<path d="M62.4843 40.4808L62.7274 39.3867H57.1354H57.0139L56.7707 40.3592V40.4808H58.7158L57.3785 46.559V46.6806H58.7158C58.7158 46.6806 58.8373 46.6806 58.8373 46.559L60.1745 40.4808C60.1745 40.4808 60.1745 40.4808 60.2961 40.4808H62.4843Z" fill="#E72511"/>
<path d="M20.5445 40.2377C20.4229 39.9945 20.1798 39.7514 19.9367 39.6298C19.6935 39.5083 19.3288 39.3867 18.9641 39.3867C18.5995 39.3867 18.1132 39.3867 17.6269 39.3867H16.1682H16.0466L14.4662 46.559V46.6806H15.8035C15.8035 46.6806 15.925 46.6806 15.925 46.559L16.5329 43.6415H17.0191C17.2622 43.6415 17.5054 43.6415 17.6269 43.7631C17.7485 43.8846 17.8701 44.1277 17.8701 44.3709L18.2348 46.559C18.2348 46.559 18.2348 46.6806 18.3563 46.6806H19.8151C19.8151 46.6806 19.9367 46.6806 19.8151 46.559L19.3288 43.7631C19.3288 43.5199 19.2073 43.3984 19.0857 43.2768C18.9641 43.1552 18.8426 43.0337 18.721 43.0337C19.2073 42.9121 19.572 42.7905 19.9367 42.4258C20.3014 42.0611 20.5445 41.6964 20.5445 41.3318C20.7876 40.8455 20.6661 40.4808 20.5445 40.2377ZM19.0857 41.4533C19.0857 41.6964 18.9641 41.818 18.8426 41.9396C18.721 42.0611 18.5995 42.1827 18.4779 42.1827C18.3563 42.3043 18.1132 42.3043 17.9916 42.3043C17.8701 42.3043 17.6269 42.3043 17.3838 42.3043H16.8975L17.3838 40.3592H17.8701C18.1132 40.3592 18.2348 40.3592 18.4779 40.3592C18.5995 40.3592 18.8426 40.4808 18.9641 40.4808C19.0857 40.6024 19.2073 40.6024 19.2073 40.7239C19.0857 41.0886 19.0857 41.3318 19.0857 41.4533Z" fill="#383838"/>
<path d="M27.109 39.3867H22.8542H22.7327L21.1523 46.559V46.6806H25.4071C25.4071 46.6806 25.5286 46.6806 25.5286 46.559L25.7718 45.5865V45.465H22.9758L23.462 43.3984H26.0149H26.1365L26.3796 42.4258V42.3043H23.8267L24.1914 40.4808H26.7443C26.7443 40.4808 26.8659 40.4808 26.8659 40.3592L27.109 39.3867Z" fill="#383838"/>
<path d="M7.65859 39.3867H5.71355H5.59198L2.30973 42.5474L3.03912 39.5083H1.58034H1.45878L0 46.559V46.6806H1.33721C1.33721 46.6806 1.45878 46.6806 1.45878 46.559L2.18817 43.2768L4.01164 46.559C4.01164 46.559 4.01164 46.559 4.1332 46.559H5.95668L3.89007 42.9121L7.65859 39.3867Z" fill="#383838"/>
<path d="M32.3363 39.3872C32.3363 39.3872 32.2147 39.3872 32.3363 39.3872L30.8775 39.2656H30.756L26.5012 46.438H27.8384H27.96L29.1756 44.3713L29.2972 44.2498H31.7285C31.7285 44.2498 31.8501 44.2498 31.8501 44.3713L32.0932 46.438C32.0932 46.438 32.0932 46.5595 32.2147 46.5595H33.552C33.552 46.5595 33.6735 46.5595 33.552 46.438L32.3363 39.3872ZM29.7834 43.3988C29.7834 43.3988 29.7834 43.2773 29.7834 43.3988L31.1207 40.9675L31.3638 43.3988V43.5204L29.7834 43.3988Z" fill="#383838"/>
</svg>
